<?xml version="1.0" encoding="UTF-8"?>
<svg id="Concepts" xmlns="http://www.w3.org/2000/svg" version="1.1" viewBox="0 0 240.2 87.2">
  <defs>
    <style>
      .cls-1 {
        fill: #a00e2b;
        stroke-width: 0px;
      }
    </style>
  </defs>
  <path class="cls-1" d="M26.2,30c.9,0,2,.1,3.1,1.1,0,0,0,0,.1-.1l1.6-1.6c.1-.1.1-.2.1-.2-1.2-1.1-1.2-2.4-1.1-3.4v-.2s0-7.3,0-7.3c0-3.8-1.5-7.3-4.1-10-2.7-2.7-6.2-4.1-10-4.1h-7.5c-1,0-2.2,0-3.4-1.1,0,0,0,0-.1.1l-1.6,1.6c-.1.1-.1.2-.1.2,1.2,1.1,1.2,2.4,1.1,3.4v7.5c0,3.8,1.5,7.3,4.1,10,2.7,2.7,6.2,4.1,10,4.1h7.5c.1,0,.2,0,.4,0M29.2,34.2c-.8,0-1.5-.3-2.1-.9-.2-.2-.3-.3-1.2-.3h-7.5c-4.6,0-8.9-1.8-12.2-5.1,0,0,0,0,0,0-3.3-3.3-5.1-7.6-5.1-12.2v-7.5c0-1,0-1-.3-1.2C.2,6.5,0,5.6,0,4.7c0-.8.4-1.5,1-2.1l1.6-1.6c1.3-1.3,3.3-1.4,4.5-.2.2.2.3.3,1.2.3h7.5c4.6,0,8.9,1.8,12.2,5.1,3.3,3.3,5.1,7.6,5.1,12.2v7.5c0,.9,0,1,.3,1.2,1.2,1.2,1.2,3.2-.2,4.5l-1.6,1.6c-.7.7-1.5,1-2.4,1M7.6,20.6h0c.5.5,1.4.5,1.9,0,.5-.5.5-1.4,0-2-.5-.5-1.4-.5-2,0s-.5,1.4,0,2M10.6,23.6h0c.5.5,1.4.5,2,0s.5-1.4,0-2c-.5-.5-1.4-.5-2,0-.5.5-.5,1.4,0,1.9M13.7,26.7h0c.5.5,1.4.5,1.9,0,.5-.5.5-1.4,0-2-.5-.5-1.4-.5-2,0-.5.5-.5,1.4,0,1.9M10.3,17.8h0c.5.5,1.4.5,1.9,0,.5-.5.5-1.4,0-2s-1.4-.5-2,0c-.5.5-.5,1.4,0,2M13.4,20.8h0c.5.5,1.4.5,2,0s.5-1.4,0-2c-.5-.5-1.4-.5-2,0-.5.5-.5,1.4,0,1.9M16.4,23.9h0c.5.5,1.4.5,1.9,0,.5-.5.5-1.4,0-2-.5-.5-1.4-.5-2,0-.5.5-.5,1.4,0,1.9M7.3,14.7h0c.5.5,1.4.5,1.9,0,.5-.5.5-1.4,0-2-.5-.5-1.4-.5-2,0-.5.5-.5,1.4,0,1.9M19.5,27h0c.5.5,1.4.5,1.9,0,.5-.5.5-1.4,0-2-.5-.5-1.4-.5-2,0-.5.5-.5,1.4,0,1.9M10,12h0c.5.5,1.4.5,1.9,0,.5-.5.5-1.4,0-2-.5-.5-1.4-.5-2,0-.5.5-.5,1.4,0,2M13.1,15h0c.5.5,1.4.5,2,0s.5-1.4,0-2c-.5-.5-1.4-.5-2,0-.5.5-.5,1.4,0,1.9M16.1,18.1h0c.5.5,1.4.5,1.9,0,.5-.5.5-1.4,0-2-.5-.5-1.4-.5-2,0-.5.5-.5,1.4,0,1.9M7,8.9h0c.5.5,1.4.5,1.9,0s.5-1.4,0-2c-.5-.5-1.4-.5-2,0-.5.5-.5,1.4,0,1.9M25.3,27.3h0c.5.5,1.4.5,1.9,0,.5-.5.5-1.4,0-2-.5-.5-1.4-.5-2,0-.5.5-.5,1.4,0,1.9M22.3,24.2h0c.5.5,1.4.5,1.9,0s.5-1.4,0-2c-.5-.5-1.4-.5-2,0-.5.5-.5,1.4,0,1.9M19.2,21.2h0c.5.5,1.4.5,1.9,0,.5-.5.5-1.4,0-2-.5-.5-1.4-.5-2,0-.5.5-.5,1.4,0,1.9M120.7,87.1c-.5,0-1-.1-1.5-.3-.5-.2-.9-.4-1.3-.7-.4-.3-.6-.7-.8-1.1l1.4-.6c0,.2.3.4.5.6.3.2.5.3.9.5.3.1.7.2,1,.2s.7,0,1-.2.6-.3.8-.5c.2-.2.3-.5.3-.8s-.1-.6-.3-.8c-.2-.2-.5-.3-.8-.4-.3-.1-.7-.2-1-.3-.7-.2-1.3-.4-1.8-.6-.5-.2-.9-.5-1.2-.9-.3-.4-.4-.8-.4-1.4s.2-1.1.5-1.5c.3-.4.8-.8,1.3-1s1.1-.4,1.7-.4,1.5.2,2.1.5c.6.3,1.1.8,1.4,1.4l-1.3.8c-.1-.2-.3-.4-.5-.6-.2-.2-.5-.3-.8-.4-.3-.1-.6-.2-.9-.2-.4,0-.7,0-1,.1-.3.1-.6.3-.8.5s-.3.5-.3.8.1.6.3.7c.2.2.5.3.8.4.3,0,.7.2,1.1.3.6.2,1.1.4,1.6.6.5.2.9.5,1.2.9.3.4.5.8.5,1.4,0,.6-.2,1.1-.5,1.5-.4.4-.8.8-1.4,1-.6.2-1.2.3-1.8.3M110.2,86.9v-9.6h1.6v1.2c.3-.4.8-.8,1.3-1.1.5-.3,1.1-.4,1.7-.4s.7,0,1.1.1l-.7,1.6c-.3,0-.5-.1-.8-.1-.5,0-.9.1-1.3.4-.4.2-.7.5-1,.9-.2.4-.4.8-.4,1.3v5.6s-1.6,0-1.6,0ZM103.1,85.6c.6,0,1.1-.2,1.6-.5.5-.3.9-.7,1.1-1.3.3-.5.4-1.1.4-1.7s-.1-1.2-.4-1.7c-.3-.5-.7-.9-1.1-1.3-.5-.3-1-.5-1.6-.5s-1.1.2-1.6.5c-.5.3-.9.7-1.1,1.3-.3.5-.4,1.1-.4,1.7s.1,1.2.4,1.7c.3.5.7.9,1.2,1.2.5.3,1,.5,1.6.5M103.1,87.2c-.9,0-1.7-.2-2.4-.7-.7-.5-1.3-1.1-1.7-1.8-.4-.8-.6-1.6-.6-2.5s.1-1.4.4-2c.3-.6.6-1.2,1-1.6s1-.8,1.5-1.1c.6-.3,1.2-.4,1.9-.4s1.7.2,2.4.7c.7.5,1.3,1.1,1.7,1.8.4.8.6,1.6.6,2.6s-.1,1.4-.4,2c-.3.6-.6,1.1-1,1.6-.4.5-.9.8-1.5,1.1-.6.3-1.2.4-1.9.4M96.5,78.9h-2.2v8h-1.6v-8s-1.6,0-1.6,0v-1.6h1.7v-3s1.6,0,1.6,0v3h2.2v1.6ZM87.1,77.3h1.6v9.6h-1.6v-9.6ZM87.9,75.8c-.3,0-.5,0-.6-.3-.2-.2-.3-.4-.3-.6s0-.5.3-.6c.2-.2.4-.2.6-.2s.5,0,.6.2c.2.2.3.4.3.6s0,.5-.3.6c-.2.2-.4.3-.6.3M83.3,84.4l1.4.8c-.4.6-1,1.1-1.7,1.5-.7.4-1.4.5-2.2.5s-1.7-.2-2.4-.7c-.7-.5-1.3-1.1-1.7-1.8-.4-.8-.6-1.6-.6-2.5s.1-1.4.4-2c.3-.6.6-1.2,1-1.6.4-.5,1-.8,1.5-1.1.6-.3,1.2-.4,1.9-.4s1.5.2,2.2.5,1.2.9,1.7,1.5l-1.4.8c-.3-.4-.7-.7-1.1-.9-.4-.2-.9-.3-1.3-.3s-1.1.2-1.6.5c-.5.3-.9.7-1.1,1.3-.3.5-.4,1.1-.4,1.7s.1,1.2.4,1.7c.3.5.7.9,1.2,1.3.5.3,1,.5,1.6.5s.9-.1,1.3-.3c.4-.2.8-.5,1.1-.8M72.2,77.3h1.6v9.6h-1.6v-9.6ZM73,75.8c-.3,0-.5,0-.6-.3-.2-.2-.3-.4-.3-.6s0-.5.3-.6c.2-.2.4-.2.6-.2s.5,0,.6.2c.2.2.3.4.3.6s0,.5-.3.6c-.2.2-.4.3-.6.3M67.7,72.5h1.6v14.4h-1.6v-14.4ZM60.6,85.6c.6,0,1.1-.2,1.6-.5.5-.3.9-.7,1.1-1.3.3-.5.4-1.1.4-1.7s-.1-1.2-.4-1.7c-.3-.5-.7-.9-1.1-1.3-.5-.3-1-.5-1.6-.5s-1.1.2-1.6.5c-.5.3-.9.7-1.1,1.3-.3.5-.4,1.1-.4,1.7s.1,1.2.4,1.7c.3.5.7.9,1.2,1.2.5.3,1,.5,1.6.5M60.6,87.2c-.9,0-1.7-.2-2.4-.7-.7-.5-1.3-1.1-1.7-1.8-.4-.8-.6-1.6-.6-2.5s.1-1.4.4-2c.3-.6.6-1.2,1-1.6s1-.8,1.5-1.1c.6-.3,1.2-.4,1.9-.4s1.7.2,2.4.7c.7.5,1.3,1.1,1.7,1.8.4.8.6,1.6.6,2.6s-.1,1.4-.4,2-.6,1.1-1,1.6c-.4.5-.9.8-1.5,1.1-.6.3-1.2.4-1.9.4M48.7,87.2c-.7,0-1.4-.1-2.1-.3-.7-.2-1.3-.6-1.8-1-.5-.4-.9-.9-1.1-1.5l1.5-.6c.1.4.4.7.7.9.3.3.8.5,1.2.6.5.1,1,.2,1.5.2s1.1,0,1.6-.3c.5-.2.9-.5,1.2-.8.3-.3.5-.7.5-1.2s-.2-.9-.5-1.1c-.3-.3-.7-.5-1.2-.7-.5-.2-1-.3-1.6-.4-.9-.2-1.8-.4-2.5-.7-.7-.3-1.3-.7-1.7-1.2-.4-.5-.6-1.2-.6-2s.2-1.5.7-2c.5-.6,1-1,1.8-1.4.7-.3,1.5-.5,2.4-.5s1.4.1,2.1.3c.7.2,1.3.5,1.8,1,.5.4.9.9,1.1,1.5l-1.5.6c-.1-.4-.4-.7-.7-.9-.3-.3-.8-.5-1.2-.6-.5-.1-1-.2-1.5-.2-.6,0-1.1,0-1.6.3-.5.2-.9.5-1.2.8-.3.3-.5.7-.5,1.2s.1,1,.4,1.2c.3.3.7.5,1.2.6.5.1,1,.3,1.7.4.9.1,1.7.4,2.4.7.7.3,1.3.7,1.8,1.3.5.5.7,1.2.7,1.9s-.2,1.5-.7,2c-.5.6-1,1-1.8,1.4-.7.3-1.6.5-2.4.5M230,51.4h3.5c.5,0,1-.1,1.5-.4.4-.3.8-.6,1.1-1.1.3-.5.4-1,.4-1.5s-.1-1.1-.4-1.5-.6-.8-1.1-1.1c-.4-.3-.9-.4-1.5-.4h-3.5v6ZM226.3,63.7v-21.5h7.7c1.2,0,2.2.3,3.2.9.9.6,1.7,1.4,2.3,2.4.6,1,.8,2.1.8,3.2s-.3,2.3-.9,3.3c-.6,1-1.3,1.8-2.3,2.3-1,.6-2,.9-3.1.9h-3.9v8.6s-3.8,0-3.8,0ZM210.2,63.7v-21.5h3.8v17.8h9v3.8h-12.7ZM194.2,63.7v-21.5h3.8v17.8h9v3.8h-12.7ZM178.1,64c-.8,0-1.6-.2-2.3-.5-.7-.3-1.4-.6-2-1.1-.6-.5-1-1-1.3-1.7l3.2-1.4c.1.2.3.4.6.7.3.2.6.4,1,.6.4.2.8.2,1.3.2s.8,0,1.1-.2c.4-.1.6-.3.9-.5.2-.2.3-.5.3-.9s-.1-.7-.4-.9c-.3-.2-.6-.4-1-.5-.4-.1-.8-.2-1.1-.3-1-.2-1.9-.5-2.7-.9-.8-.4-1.5-.9-2-1.6-.5-.7-.8-1.4-.8-2.4s.3-1.9.8-2.6c.5-.7,1.2-1.3,2.1-1.7.9-.4,1.8-.6,2.8-.6s2.3.3,3.4.8c1,.5,1.8,1.2,2.4,2.1l-3,1.8c-.1-.2-.3-.5-.6-.7-.3-.2-.5-.4-.9-.5-.3-.1-.7-.2-1-.2-.5,0-.9,0-1.3.1-.4.1-.7.3-.9.5-.2.2-.3.6-.3,1s.2.7.5.9c.3.2.7.3,1.1.4.4.1.9.2,1.3.3.9.3,1.8.7,2.5,1.1.8.4,1.4,1,1.9,1.6.5.6.7,1.4.7,2.2,0,1-.3,1.9-.9,2.6-.6.7-1.4,1.3-2.3,1.7-.9.4-1.9.5-3,.5M170.5,54v9.7h-3.8v-8.7c0-.6-.1-1.2-.4-1.7-.3-.5-.7-.9-1.2-1.2-.5-.3-1-.4-1.7-.4s-1.2.1-1.7.4c-.5.3-.9.7-1.2,1.2-.3.5-.4,1-.4,1.7v8.7h-3.8v-15.4s3.7,0,3.7,0v1.4c.5-.6,1.2-1,1.9-1.3.7-.3,1.5-.5,2.4-.5s2.1.3,3.1.8c.9.5,1.7,1.3,2.2,2.2.5.9.8,1.9.8,3.1M146,60.3c.7,0,1.4-.2,2-.6.6-.4,1.1-.9,1.4-1.6.3-.7.5-1.4.5-2.2s-.2-1.5-.5-2.2c-.4-.7-.8-1.2-1.4-1.6s-1.3-.6-2-.6-1.4.2-2,.6c-.6.4-1.1.9-1.4,1.6-.3.7-.5,1.4-.5,2.2s.2,1.5.5,2.2c.4.7.8,1.2,1.4,1.6.6.4,1.3.6,2,.6M146,64.1c-1.4,0-2.7-.4-3.9-1.1-1.2-.7-2.1-1.7-2.8-2.9-.7-1.2-1-2.6-1-4.1s.2-2.2.6-3.2c.4-1,1-1.8,1.7-2.6.7-.7,1.5-1.3,2.5-1.7.9-.4,1.9-.6,3-.6s2.7.4,3.9,1.1c1.2.7,2.1,1.7,2.8,2.9.7,1.2,1,2.6,1,4.1s-.2,2.2-.6,3.1c-.4,1-1,1.8-1.7,2.6-.7.7-1.5,1.3-2.4,1.7-.9.4-1.9.6-3,.6M127.5,63.7v-15.4s3.7,0,3.7,0v1.4c.5-.6,1.2-1,1.9-1.3.7-.3,1.5-.5,2.4-.5s1.1,0,1.7.2l-1.5,3.8c-.4-.2-.8-.2-1.2-.2-.6,0-1.2.1-1.7.4-.5.3-.9.7-1.2,1.2-.3.5-.4,1-.4,1.7v8.7h-3.8ZM113.3,54.5h7.6c-.1-.6-.4-1.2-.7-1.7-.4-.5-.8-.9-1.3-1.2-.5-.3-1.1-.4-1.7-.4s-1.2.1-1.7.4c-.5.3-1,.7-1.3,1.2-.4.5-.6,1.1-.7,1.7M117.1,64.1c-1.4,0-2.7-.4-3.9-1.1-1.2-.7-2.1-1.7-2.8-2.9-.7-1.2-1-2.6-1-4.1s.2-2.2.6-3.1c.4-1,1-1.8,1.7-2.6.7-.7,1.5-1.3,2.5-1.7.9-.4,1.9-.6,3-.6s2.3.3,3.3.8c1,.5,1.8,1.2,2.5,2.1.7.9,1.2,1.9,1.5,3,.3,1.1.4,2.3.2,3.5h-11.2c.1.6.4,1.1.7,1.5.3.5.7.8,1.2,1.1.5.3,1.1.4,1.7.4.7,0,1.3-.1,1.8-.5.5-.3,1-.8,1.3-1.3l3.8.9c-.6,1.4-1.6,2.5-2.8,3.3-1.2.9-2.6,1.3-4.2,1.3M83,63.7v-15.4h3.8v1.4c.5-.6,1.1-1,1.9-1.3s1.5-.5,2.4-.5,2,.3,2.9.8c.9.5,1.6,1.2,2.1,2,.5-.8,1.3-1.5,2.2-2,.9-.5,1.9-.8,2.9-.8s2.2.3,3.1.8c.9.5,1.7,1.3,2.2,2.2.5.9.8,1.9.8,3.1v9.7h-3.8v-8.7c0-.6-.1-1.1-.4-1.6-.3-.5-.7-.9-1.2-1.2-.5-.3-1-.5-1.6-.5s-1.2.1-1.6.4c-.5.3-.9.7-1.2,1.2-.3.5-.4,1.1-.4,1.7v8.7h-3.8v-8.7c0-.6-.1-1.2-.4-1.7-.3-.5-.7-.9-1.2-1.2-.5-.3-1-.4-1.6-.4s-1.1.2-1.6.5c-.5.3-.9.7-1.2,1.2-.3.5-.4,1-.4,1.6v8.7h-3.8ZM71.9,60.5c.8,0,1.5-.2,2.1-.6.6-.4,1.1-.9,1.4-1.6.3-.7.5-1.4.5-2.3s-.2-1.6-.5-2.3c-.3-.7-.8-1.2-1.5-1.6-.6-.4-1.3-.6-2.1-.6s-1.5.2-2.2.6c-.7.4-1.2.9-1.6,1.6-.4.7-.6,1.4-.6,2.3s.2,1.6.6,2.3c.4.7.9,1.2,1.6,1.6.7.4,1.4.6,2.1.6M76.3,48.3h3.8v15.4h-3.8l-.2-1.9c-.4.7-1,1.2-1.7,1.7-.7.4-1.5.6-2.5.6s-2.2-.2-3.2-.6c-1-.4-1.9-1-2.6-1.8-.8-.8-1.3-1.6-1.8-2.6-.4-1-.6-2.1-.6-3.2s.2-2.1.6-3.1c.4-1,1-1.8,1.7-2.5.7-.7,1.6-1.3,2.5-1.7,1-.4,2-.6,3.1-.6s1.9.2,2.7.7c.8.5,1.5,1,2.1,1.7l-.2-2ZM52.9,64.1c-1.5,0-2.8-.3-4.1-.9-1.3-.6-2.4-1.4-3.4-2.4-1-1-1.7-2.2-2.3-3.6-.5-1.3-.8-2.8-.8-4.3s.3-3,.8-4.3c.5-1.3,1.3-2.5,2.3-3.6,1-1,2.1-1.8,3.4-2.4,1.3-.6,2.7-.9,4.1-.9s3.3.4,4.8,1.2c1.5.8,2.7,1.9,3.6,3.2l-3.4,1.8c-.6-.7-1.4-1.3-2.3-1.8-.9-.5-1.8-.7-2.9-.7s-1.8.2-2.7.6c-.8.4-1.6.9-2.2,1.6-.6.7-1.1,1.5-1.5,2.4-.3.9-.5,1.9-.5,2.9s.2,2,.5,2.9c.4.9.8,1.7,1.5,2.4.6.7,1.4,1.2,2.2,1.6.8.4,1.7.6,2.7.6s2-.2,2.9-.7c.9-.5,1.6-1.1,2.2-1.8l3.4,1.8c-1,1.3-2.2,2.4-3.6,3.2-1.5.8-3.1,1.2-4.8,1.2M239.5,23v9.7h-3.8v-8.7c0-.6-.1-1.2-.4-1.7-.3-.5-.7-.9-1.2-1.2-.5-.3-1-.4-1.7-.4s-1.2.1-1.7.4c-.5.3-.9.7-1.2,1.2-.3.5-.4,1-.4,1.7v8.7h-3.8v-15.4s3.7,0,3.7,0v1.4c.5-.6,1.2-1,1.9-1.3.7-.3,1.5-.5,2.4-.5s2.1.3,3.1.8c.9.5,1.7,1.3,2.2,2.2.5.9.8,1.9.8,3.1M214.5,29.4c.7,0,1.4-.2,2-.6.6-.4,1.1-.9,1.4-1.6.3-.7.5-1.4.5-2.2s-.2-1.5-.5-2.2c-.4-.7-.8-1.2-1.4-1.6-.6-.4-1.3-.6-2-.6s-1.4.2-2,.6c-.6.4-1.1.9-1.4,1.6-.3.7-.5,1.4-.5,2.2s.2,1.5.5,2.2c.4.7.8,1.2,1.4,1.6.6.4,1.3.6,2,.6M214.5,33.1c-1.4,0-2.7-.4-3.9-1.1-1.2-.7-2.1-1.7-2.8-2.9-.7-1.2-1-2.6-1-4.1s.2-2.2.6-3.2c.4-1,1-1.8,1.7-2.6.7-.7,1.5-1.3,2.5-1.7.9-.4,1.9-.6,3-.6s2.7.4,3.9,1.1c1.2.7,2.1,1.7,2.8,2.9.7,1.2,1,2.6,1,4.1s-.2,2.2-.6,3.1c-.4,1-1,1.8-1.7,2.6-.7.7-1.5,1.3-2.4,1.7-.9.4-1.9.6-3,.6M180,32.7v-15.4h3.8v1.4c.5-.6,1.1-1,1.9-1.3.7-.3,1.5-.5,2.4-.5s2,.3,2.9.8c.9.5,1.6,1.2,2.1,2,.5-.8,1.3-1.5,2.2-2,.9-.5,1.9-.8,2.9-.8s2.2.3,3.1.8c.9.5,1.7,1.3,2.2,2.2.5.9.8,1.9.8,3.1v9.7h-3.8v-8.7c0-.6-.1-1.1-.4-1.6-.3-.5-.7-.9-1.2-1.2-.5-.3-1-.5-1.6-.5s-1.2.1-1.6.4c-.5.3-.9.7-1.2,1.2-.3.5-.4,1.1-.4,1.7v8.7h-3.8v-8.7c0-.6-.1-1.2-.4-1.7-.3-.5-.7-.9-1.2-1.2-.5-.3-1-.4-1.6-.4s-1.1.2-1.6.5-.9.7-1.2,1.2c-.3.5-.4,1-.4,1.6v8.7h-3.8ZM165.3,23.5h7.6c-.1-.6-.4-1.2-.7-1.7-.4-.5-.8-.9-1.3-1.2-.5-.3-1.1-.4-1.7-.4s-1.2.1-1.7.4c-.5.3-1,.7-1.3,1.2-.4.5-.6,1.1-.7,1.7M169,33.1c-1.4,0-2.7-.4-3.9-1.1-1.2-.7-2.1-1.7-2.8-2.9-.7-1.2-1-2.6-1-4.1s.2-2.2.6-3.1c.4-1,1-1.8,1.7-2.6.7-.7,1.5-1.3,2.5-1.7.9-.4,1.9-.6,3-.6s2.3.3,3.3.8c1,.5,1.8,1.2,2.5,2.1.7.9,1.2,1.9,1.5,3,.3,1.1.4,2.3.2,3.5h-11.2c.1.6.4,1.1.7,1.5.3.5.7.8,1.2,1.1.5.3,1.1.4,1.7.4.7,0,1.3-.1,1.8-.5.5-.3,1-.8,1.3-1.3l3.8.9c-.6,1.4-1.6,2.5-2.8,3.3-1.2.9-2.6,1.3-4.2,1.3M145.7,32.7V11.2h3.8v17.8h9v3.8h-12.7ZM125.6,32.7v-15.4s3.7,0,3.7,0v1.4c.5-.6,1.2-1,1.9-1.3.7-.3,1.5-.5,2.4-.5s1.1,0,1.7.2l-1.5,3.8c-.4-.2-.8-.2-1.2-.2-.6,0-1.2.1-1.7.4-.5.3-.9.7-1.2,1.2-.3.5-.4,1-.4,1.7v8.7s-3.8,0-3.8,0ZM110.9,23.5h7.6c-.1-.6-.4-1.2-.7-1.7-.4-.5-.8-.9-1.3-1.2-.5-.3-1.1-.4-1.7-.4s-1.2.1-1.7.4c-.5.3-1,.7-1.3,1.2-.4.5-.6,1.1-.7,1.7M114.6,33.1c-1.4,0-2.7-.4-3.9-1.1-1.2-.7-2.1-1.7-2.8-2.9-.7-1.2-1-2.6-1-4.1s.2-2.2.6-3.1c.4-1,1-1.8,1.7-2.6.7-.7,1.5-1.3,2.5-1.7.9-.4,1.9-.6,3-.6s2.3.3,3.3.8c1,.5,1.8,1.2,2.5,2.1.7.9,1.2,1.9,1.5,3,.3,1.1.4,2.3.2,3.5h-11.2c.1.6.4,1.1.7,1.5.3.5.7.8,1.2,1.1.5.3,1.1.4,1.7.4.7,0,1.3-.1,1.8-.5.5-.3,1-.8,1.3-1.3l3.8.9c-.6,1.4-1.6,2.5-2.8,3.3-1.2.9-2.6,1.3-4.2,1.3M104.6,21.1h-3v11.6h-3.8v-11.6h-2.3v-3.8h2.3v-4.8h3.8v4.8h3v3.8ZM84.1,32.7v-15.4s3.7,0,3.7,0v1.4c.5-.6,1.2-1,1.9-1.3.7-.3,1.5-.5,2.4-.5s1.1,0,1.7.2l-1.5,3.8c-.4-.2-.8-.2-1.2-.2-.6,0-1.2.1-1.7.4-.5.3-.9.7-1.2,1.2-.3.5-.4,1-.4,1.7v8.7s-3.8,0-3.8,0ZM72.4,29.5c.8,0,1.5-.2,2.1-.6.6-.4,1.1-.9,1.4-1.6.3-.7.5-1.4.5-2.3s-.2-1.6-.5-2.3c-.3-.7-.8-1.2-1.5-1.6-.6-.4-1.3-.6-2.1-.6s-1.5.2-2.2.6c-.7.4-1.2.9-1.6,1.6-.4.7-.6,1.4-.6,2.3s.2,1.6.6,2.3c.4.7.9,1.2,1.6,1.6.7.4,1.4.6,2.1.6M76.8,17.3h3.8v15.4h-3.8l-.2-1.9c-.4.7-1,1.2-1.7,1.7-.7.4-1.5.6-2.5.6s-2.2-.2-3.2-.6c-1-.4-1.9-1-2.6-1.8-.8-.8-1.3-1.6-1.8-2.6-.4-1-.6-2.1-.6-3.2s.2-2.1.6-3.1c.4-1,1-1.8,1.7-2.5.7-.7,1.6-1.3,2.5-1.7,1-.4,2-.6,3.1-.6s1.9.2,2.7.7c.8.5,1.5,1,2.1,1.7l-.2-2ZM52.9,33.1c-1.5,0-2.8-.3-4.1-.9-1.3-.6-2.4-1.4-3.4-2.4-1-1-1.7-2.2-2.3-3.6-.5-1.3-.8-2.8-.8-4.3s.3-3,.8-4.3c.5-1.3,1.3-2.5,2.3-3.6,1-1,2.1-1.8,3.4-2.4,1.3-.6,2.7-.9,4.1-.9s3.3.4,4.8,1.2c1.5.8,2.7,1.9,3.6,3.2l-3.4,1.8c-.6-.7-1.4-1.3-2.3-1.8-.9-.5-1.8-.7-2.9-.7s-1.8.2-2.7.6c-.8.4-1.6.9-2.2,1.6-.6.7-1.1,1.5-1.5,2.4-.3.9-.5,1.9-.5,2.9s.2,2,.5,2.9c.4.9.8,1.7,1.5,2.4.6.7,1.4,1.2,2.2,1.6.8.4,1.7.6,2.7.6s2-.2,2.9-.7c.9-.5,1.6-1.1,2.2-1.8l3.4,1.8c-1,1.3-2.2,2.4-3.6,3.2-1.5.8-3.1,1.2-4.8,1.2"/>
</svg>