<?xml version="1.0" encoding="UTF-8"?>
<svg version="1.1" xmlns="http://www.w3.org/2000/svg" width="150" height="150">
<path d="M0 0 C1.11568359 0.11408203 1.11568359 0.11408203 2.25390625 0.23046875 C4.4375 0.8125 4.4375 0.8125 5.97436523 2.32128906 C9.81672729 4.64750053 13.62184798 4.25334145 18.03125 4.25390625 C19.44500916 4.27371803 19.44500916 4.27371803 20.8873291 4.29393005 C23.90408185 4.33480177 26.92053347 4.35645702 29.9375 4.375 C56.40322445 4.58712004 78.95960129 7.63311845 98.75 27 C114.1524132 43.11880451 119.45792515 62.89063361 119.6484375 84.6171875 C119.67646212 86.43490552 119.70512615 88.25261377 119.734375 90.0703125 C119.77583507 92.89453301 119.81278682 95.71856161 119.83886719 98.54296875 C119.8664099 101.29724021 119.91221785 104.05072023 119.9609375 106.8046875 C119.9658168 108.0719014 119.9658168 108.0719014 119.97079468 109.36471558 C120.06497883 113.846221 120.24841213 116.40761701 123.4375 119.8125 C124.27834559 124.82727282 124.10759457 129.38854904 121.9375 134 C110.89680233 146.42078488 110.89680233 146.42078488 104.78125 147.11328125 C103.8428125 147.11714844 102.904375 147.12101563 101.9375 147.125 C100.52984375 147.15013672 100.52984375 147.15013672 99.09375 147.17578125 C96.4375 146.8125 96.4375 146.8125 94.82568359 145.31738281 C91.20557791 143.03622032 87.76765685 143.37167784 83.5703125 143.37109375 C82.26355057 143.35128197 82.26355057 143.35128197 80.9303894 143.33106995 C78.14106179 143.29022114 75.3520583 143.2685617 72.5625 143.25 C45.4372118 143.01344225 22.66889337 140.2688321 2.00390625 120.56640625 C-12.4542899 105.05190354 -18.60550886 86.44460922 -18.7734375 65.546875 C-18.80147463 63.5859287 -18.83013881 61.62499129 -18.859375 59.6640625 C-18.90078666 56.60058551 -18.93771528 53.53728046 -18.96386719 50.47363281 C-18.99141324 47.49770912 -19.03724059 44.52251758 -19.0859375 41.546875 C-19.08919037 40.63017029 -19.09244324 39.71346558 -19.09579468 38.76898193 C-19.18035465 32.70880809 -19.18035465 32.70880809 -22.5625 27.8125 C-23.1796875 25.6640625 -23.1796875 25.6640625 -23.4375 23.4375 C-23.53804687 22.70789063 -23.63859375 21.97828125 -23.7421875 21.2265625 C-23.29259516 15.18638718 -19.33238416 11.10656266 -15.1875 7.0625 C-14.48367188 6.34126953 -14.48367188 6.34126953 -13.765625 5.60546875 C-9.54350809 1.41834176 -5.99346318 -0.71921558 0 0 Z M-2.5625 14.8125 C-4.5425 16.7925 -6.5225 18.7725 -8.5625 20.8125 C-8.253125 21.43125 -7.94375 22.05 -7.625 22.6875 C-5.38246938 27.17256124 -5.37496466 30.94963564 -5.31640625 35.921875 C-5.28341337 37.8112016 -5.25020282 39.70052441 -5.21679688 41.58984375 C-5.16980194 44.55807322 -5.12548536 47.52629391 -5.08569336 50.49462891 C-4.76705971 73.15768597 -3.20453047 93.63130195 13.1875 111.0625 C25.85287405 122.9499624 40.79291803 127.89287044 57.83984375 128.0234375 C59.88477374 128.05149797 61.92969552 128.08016237 63.97460938 128.109375 C67.17830239 128.15064008 70.38184059 128.18755618 73.58569336 128.21386719 C76.69155945 128.24154488 79.79674276 128.28740244 82.90234375 128.3359375 C84.32920753 128.3408168 84.32920753 128.3408168 85.78489685 128.34579468 C91.45989761 128.45013262 95.35402529 129.29308604 100.4375 131.8125 C102.61326488 132.06024386 102.61326488 132.06024386 104.4375 130.8125 C106.2653551 128.90011981 107.82286812 126.92049162 109.4375 124.8125 C108.963125 124.235 108.48875 123.6575 108 123.0625 C105.59450579 119.59858834 105.31470388 116.47679006 105.27978516 112.32617188 C105.26952301 111.44425171 105.25926086 110.56233154 105.24868774 109.65368652 C105.24138641 108.70578247 105.23408508 107.75787842 105.2265625 106.78125 C105.19847071 104.75259642 105.16980612 102.7239507 105.140625 100.6953125 C105.09957583 97.51400165 105.06266961 94.33283394 105.03613281 91.15136719 C105.09181793 74.72180513 105.09181793 74.72180513 101.4375 58.8125 C101.19854004 58.14669922 100.95958008 57.48089844 100.71337891 56.79492188 C94.29723258 40.65135315 82.15642984 30.09001278 66.5625 23 C52.30889258 17.56058773 36.99331634 18.44952872 21.97485352 18.35620117 C19.04675314 18.33454679 16.11928647 18.29516394 13.19140625 18.25390625 C11.85536095 18.25373253 11.85536095 18.25373253 10.49232483 18.2535553 C5.38181236 18.17225776 1.91003906 17.56746712 -2.5625 14.8125 Z " fill="#9F0E2B" transform="translate(24.5625,1.1875)"/>
<path d="M0 0 C2 3 2 3 1.8125 6.5625 C1 10 1 10 -2 12 C-5.0875593 12.32162076 -7.14015561 12.48724515 -9.875 10.9375 C-11.66235303 7.85928089 -11.43386742 5.47093932 -11 2 C-7.88980721 -1.98104677 -4.56233816 -1.18282841 0 0 Z " fill="#9F0E2B" transform="translate(69,106)"/>
<path d="M0 0 C2.7912125 1.98322993 3.82597224 3.12986121 4.5 6.5 C4 9 4 9 2.4375 11.375 C0 13 0 13 -3.625 12.875 C-7 12 -7 12 -9 10 C-9.55021834 3.94759825 -9.55021834 3.94759825 -7.875 1.0625 C-5.06487736 -0.52990283 -3.17235276 -0.45319325 0 0 Z " fill="#9F0E2B" transform="translate(54,92)"/>
<path d="M0 0 C3.4375 0.8125 3.4375 0.8125 5.4375 3.8125 C5.76252803 6.93276907 5.94901479 8.95997535 4.3125 11.6875 C1.51303259 13.36718045 -0.36054064 13.26992277 -3.5625 12.8125 C-6 11.25 -6 11.25 -7.5625 8.8125 C-7.5 5.1875 -7.5 5.1875 -6.5625 1.8125 C-3.5625 -0.1875 -3.5625 -0.1875 0 0 Z " fill="#9F0E2B" transform="translate(36.5625,29.1875)"/>
<path d="M0 0 C2 1.625 2 1.625 3 4 C2.92897215 7.4803645 2.61415498 9.29485909 0.3125 11.9375 C-2.83903422 13.38550221 -4.70949263 12.929926 -8 12 C-10 10 -10 10 -10.3125 6.5625 C-10 3 -10 3 -8.9375 1.0625 C-5.84506242 -0.63335287 -3.44485259 -0.43060657 0 0 Z " fill="#9F0E2B" transform="translate(118,108)"/>
<path d="M0 0 C1.9375 1.6875 1.9375 1.6875 3 4 C2.77962372 7.67293796 2.63033454 9.36966546 0 12 C-6.00458716 12.54587156 -6.00458716 12.54587156 -8.9375 10.9375 C-10.63335287 7.84506242 -10.43060657 5.44485259 -10 2 C-7.0239502 -1.66283052 -4.29996319 -1.37232868 0 0 Z " fill="#9F0E2B" transform="translate(93,107)"/>
<path d="M0 0 C3 2 3 2 3.9375 4.8125 C4 8 4 8 2.4375 10.875 C0 13 0 13 -3.0625 13.5 C-6 13 -6 13 -7.875 11.9375 C-9.64273274 8.8930714 -9.36823916 6.4368988 -9 3 C-6.83464775 -0.72921777 -4.01926187 -0.41867311 0 0 Z " fill="#9F0E2B" transform="translate(41,79)"/>
<path d="M0 0 C2 2 2 2 2.3125 5.4375 C2 9 2 9 0.875 10.9375 C-1.93512264 12.52990283 -3.82764724 12.45319325 -7 12 C-9.4375 10.375 -9.4375 10.375 -11 8 C-11 4.48640932 -10.6312066 2.72471868 -8.3125 0.0625 C-5.16096578 -1.38550221 -3.29050737 -0.929926 0 0 Z " fill="#9F0E2B" transform="translate(79,69)"/>
<path d="M0 0 C2 2 2 2 2.3125 5.4375 C2 9 2 9 0.9375 10.9375 C-2.15493758 12.63335287 -4.55514741 12.43060657 -8 12 C-10 10.375 -10 10.375 -11 8 C-10.92897215 4.5196355 -10.61415498 2.70514091 -8.3125 0.0625 C-5.16096578 -1.38550221 -3.29050737 -0.929926 0 0 Z " fill="#9F0E2B" transform="translate(66,56)"/>
<path d="M0 0 C1.89488952 1.89488952 1.18019112 4.57139146 1.23046875 7.08984375 C1 9 1 9 -1 11 C-6.1202346 11.56891496 -6.1202346 11.56891496 -9 11 C-11.125 8.875 -11.125 8.875 -12 6 C-11.40746405 2.6422963 -10.86375956 0.74036534 -8.25 -1.5 C-5.03840047 -2.21368878 -2.9789612 -1.25778362 0 0 Z " fill="#9F0E2B" transform="translate(106,96)"/>
<path d="M0 0 C1.9375 1.6875 1.9375 1.6875 3 4 C2.875 7.125 2.875 7.125 2 10 C-1.46923881 12.31282587 -2.92205575 12.42478586 -7 12 C-8.875 10.9375 -8.875 10.9375 -10 9 C-10.4375 5.5 -10.4375 5.5 -10 2 C-7.0239502 -1.66283052 -4.29996319 -1.37232868 0 0 Z " fill="#9F0E2B" transform="translate(80,94)"/>
<path d="M0 0 C3.25194363 0.08885092 3.78233202 0.15733202 6.1875 2.5625 C7.0625 5.4375 7.0625 5.4375 6.625 8.625 C5.0625 11.4375 5.0625 11.4375 2.25 13 C-0.9375 13.4375 -0.9375 13.4375 -3.8125 12.5625 C-6.21766798 10.15733202 -6.28614908 9.62694363 -6.375 6.375 C-5.78513989 1.06625904 -5.30874096 0.58986011 0 0 Z " fill="#9F0E2B" transform="translate(87.9375,81.5625)"/>
<path d="M0 0 C2.375 2.1875 2.375 2.1875 4 5 C3.93107581 7.89481608 3.38861317 9.40685358 1.8125 11.8125 C-0.88924432 13.58260835 -2.84673574 13.39415803 -6 13 C-7.875 11.9375 -7.875 11.9375 -9 10 C-9.4375 6.5 -9.4375 6.5 -9 3 C-6.3773336 -0.01120957 -3.90597484 -0.78119497 0 0 Z " fill="#9F0E2B" transform="translate(66,80)"/>
<path d="M0 0 C2 2 2 2 2.3125 5.4375 C2 9 2 9 0.875 10.9375 C-1.93512264 12.52990283 -3.82764724 12.45319325 -7 12 C-9.4375 10.375 -9.4375 10.375 -11 8 C-11 4.48640932 -10.6312066 2.72471868 -8.3125 0.0625 C-5.16096578 -1.38550221 -3.29050737 -0.929926 0 0 Z " fill="#9F0E2B" transform="translate(53,43)"/>
<path d="M0 0 C1.875 1.0625 1.875 1.0625 3 3 C3.63316583 8.90954774 3.63316583 8.90954774 1.875 11.9375 C-0.9699825 13.54965675 -2.7911929 13.52388687 -6 13 C-8.4375 10.8125 -8.4375 10.8125 -10 8 C-9.93107581 5.10518392 -9.38861317 3.59314642 -7.8125 1.1875 C-5.11075568 -0.58260835 -3.15326426 -0.39415803 0 0 Z " fill="#9F0E2B" transform="translate(53,67)"/>
<path d="M0 0 C3.125 0.25 3.125 0.25 4.9375 1.5 C6.33705 3.56249474 6.97764484 4.74496229 7.125 7.25 C5.97713059 9.49356294 4.9154233 11.4595767 3.125 13.25 C-2.20318533 13.71332046 -2.20318533 13.71332046 -4.6875 12 C-6.08705 9.93750526 -6.72764484 8.75503771 -6.875 6.25 C-3.84854497 0.33465608 -3.84854497 0.33465608 0 0 Z " fill="#9F0E2B" transform="translate(36.875,53.75)"/>
</svg>
