<?xml version="1.0" encoding="utf-8"?>
<!-- Generator: Adobe Illustrator 27.8.0, SVG Export Plug-In . SVG Version: 6.00 Build 0)  -->
<svg version="1.1" id="Layer_2" xmlns="http://www.w3.org/2000/svg" xmlns:xlink="http://www.w3.org/1999/xlink" x="0px" y="0px"
	 viewBox="0 0 575.462 181.8118" style="enable-background:new 0 0 575.462 181.8118;" xml:space="preserve">
<style type="text/css">
	.st0{fill:#FFFFFF;}
	.st1{fill:#00AABE;}
	.st2{fill:#FFD700;}
	.st3{fill:#33BBCB;}
</style>
<g>
	<path class="st1" d="M201.747,109.308c1.5417-1.4352,2.3139-3.6398,2.3139-6.6168c0-6.4847-1.5158-12.2294-4.5473-17.2272
		c-3.0283-4.998-7.177-8.905-12.4422-11.7244c-5.2617-2.8158-11.4026-4.2254-18.4218-4.2254c-4.9979,0-9.7836,0.8238-14.3569,2.4716
		c-4.5733,1.6508-8.5865,4.0935-12.0397,7.3376c-3.4597,3.2438-6.1985,7.3118-8.2165,12.2004
		c-2.0212,4.8918-3.0315,10.5818-3.0315,17.0666c0,9.0399,1.7796,16.5898,5.3458,22.6498
		c3.5591,6.0603,8.5057,10.6076,14.8331,13.6393c6.3239,3.0283,13.5844,4.5442,21.772,4.5442
		c5.3165,0,10.0506-0.5344,14.1961-1.5965c4.1484-1.0589,7.444-2.5743,9.8898-4.5441c2.4461-1.9663,3.6689-4.3319,3.6689-7.0995
		c0-1.6992-0.4538-3.2698-1.3549-4.7052c-0.9041-1.4352-2.1015-2.6292-3.588-3.5883c-2.2337,1.5963-5.2652,3.0574-9.0923,4.3865
		c-3.8297,1.3324-7.9781,1.9954-12.4419,1.9954c-6.5942,0-12.0429-1.5963-16.3492-4.7856
		c-3.4387-2.545-5.7892-6.2615-7.0935-11.1098l44.497-6.4363C198.0525,111.6219,200.2056,110.7432,201.747,109.308z
		 M149.5824,104.6852c0.3364-6.2764,2.162-11.1785,5.5087-14.677c3.6143-3.7717,8.1359-5.661,13.5587-5.661
		c5.3168,0,9.3558,1.4901,12.1235,4.467c2.7645,2.977,4.3062,6.4847,4.6246,10.527L149.5824,104.6852z"/>
	<path class="st1" d="M232.8913,44.2316c1.6993,1.3324,2.5521,3.6977,2.5521,7.0994v95.5407
		c-0.8528,0.3185-2.0725,0.6114-3.6688,0.8784c-1.5964,0.2639-3.3503,0.3992-5.262,0.3992c-3.6173,0-6.3014-0.6662-8.0555-1.9953
		c-1.7571-1.3293-2.6326-3.6945-2.6326-7.0964V43.5139c0.7435-0.2124,1.9375-0.4795,3.5885-0.7982
		c1.6478-0.3185,3.3759-0.4763,5.1847-0.4763C228.4243,42.2395,231.1888,42.9025,232.8913,44.2316z"/>
	<path class="st1" d="M321.0189,86.4198c-3.4567-5.8477-8.2165-10.1281-14.2766-12.841
		c-6.0634-2.7096-12.9763-4.0646-20.7357-4.0646c-5.7414,0-10.9004,0.6629-15.4737,1.9922c-4.5733,1.3322-8.4,2.8995-11.4829,4.705
		c-2.2337,1.3837-3.83,2.8707-4.7857,4.4669c-0.9557,1.5963-1.4355,3.6172-1.4355,6.0601v81.0293
		c0,3.4017,0.8787,5.7928,2.6326,7.1767c1.7539,1.3808,4.4384,2.0726,8.0557,2.0726c1.9118,0,3.6686-0.135,5.262-0.3991
		c1.5963-0.2639,2.8162-0.5568,3.6689-0.8753v-29.6293c1.3364,0.573,2.789,1.1205,4.3865,1.6369
		c3.4535,1.1168,7.3089,1.6736,11.5634,1.6736c7.3378,0,13.8517-1.5159,19.5418-4.5442
		c5.6869-3.0317,10.1507-7.5244,13.3976-13.4783c3.241-5.9536,4.8633-13.4009,4.8633-22.3313
		C326.2006,99.8174,324.4721,92.2706,321.0189,86.4198z M300.6789,127.6522c-3.7202,3.9874-8.77,5.9796-15.1518,5.9796
		c-3.8265,0-7.1513-0.6599-9.9671-1.9922c-1.1163-0.5264-2.121-1.1049-3.1121-1.6897V88.6532
		c1.5963-0.9557,3.5078-1.7796,5.7414-2.4715c2.2337-0.6921,4.8374-1.0364,7.8173-1.0364c3.8268,0,7.2832,0.7982,10.3661,2.3912
		c3.0835,1.5962,5.5036,4.1227,7.2575,7.5757c1.7574,3.4564,2.6326,8.11,2.6326,13.9578
		C306.2628,117.4696,304.4027,123.6649,300.6789,127.6522z"/>
	<path class="st1" d="M408.9855,99.6597v47.212c-0.853,0.3185-2.1017,0.6114-3.7495,0.8784
		c-1.651,0.2639-3.3759,0.3992-5.1847,0.3992c-3.7237,0-6.4335-0.6662-8.136-1.9953c-1.6993-1.3293-2.5521-3.6945-2.5521-7.0964
		v-38.442c0-5.4228-1.461-9.3556-4.3833-11.8014c-2.9286-2.4459-6.6201-3.6689-11.0871-3.6689
		c-3.6175,0-6.9388,0.6919-9.9704,2.0726c-1.8374,0.8395-3.4787,1.7831-5.0239,2.7781v15.0865v41.7892
		c-0.8528,0.3185-2.0725,0.6114-3.6688,0.8784c-1.5932,0.2639-3.3503,0.3992-5.262,0.3992c-3.6173,0-6.3015-0.6662-8.0555-1.9953
		c-1.7539-1.3293-2.6326-3.6945-2.6326-7.0964V43.5139c0.8496-0.2124,2.0726-0.4795,3.669-0.7982
		c1.5962-0.3185,3.3501-0.4763,5.2652-0.4763c3.7203,0,6.4301,0.663,8.1326,1.9921c1.6993,1.3324,2.5521,3.6977,2.5521,7.0994
		v22.6081c1.6229-0.7646,3.4235-1.5219,5.4229-2.2717c3.8298-1.4354,8.136-2.1531,12.9217-2.1531
		c9.568,0,17.2502,2.4974,23.0464,7.4952C406.0857,82.0107,408.9855,89.5576,408.9855,99.6597z"/>
	<path class="st1" d="M443.2734,73.1026c1.6993,1.3293,2.5521,3.7494,2.5521,7.2572v66.512
		c-0.8528,0.3185-2.0724,0.6114-3.6688,0.8784c-1.5964,0.2639-3.3503,0.3992-5.2652,0.3992c-3.6142,0-6.3272-0.6662-8.1328-1.9953
		c-1.8086-1.3293-2.713-3.6945-2.713-7.0964V72.3849c0.8496-0.3185,2.0984-0.6114,3.7495-0.8785
		c1.6476-0.2639,3.4274-0.3992,5.3425-0.3992C438.8579,71.1073,441.571,71.7735,443.2734,73.1026z"/>
	<path class="st2" d="M444.1489,41.4413c2.0758,2.1272,3.1121,4.7309,3.1121,7.8139c0,2.9802-1.0362,5.5579-3.1121,7.7368
		c-2.0726,2.1819-4.8115,3.2697-8.2133,3.2697c-3.2986,0-6.0375-1.0879-8.2131-3.2697c-2.1821-2.1789-3.2698-4.7566-3.2698-7.7368
		c0-3.083,1.0877-5.6867,3.2698-7.8139c2.1756-2.1272,4.9145-3.1893,8.2131-3.1893
		C439.3374,38.252,442.0763,39.3141,444.1489,41.4413z"/>
	<path class="st1" d="M532.7526,97.9058v48.9659c-0.7433,0.3185-1.9405,0.6114-3.5883,0.8784
		c-1.6478,0.2639-3.3761,0.3992-5.1815,0.3992c-3.7236,0-6.4623-0.6662-8.2164-1.9953c-1.754-1.3293-2.6326-3.6945-2.6326-7.0964
		v-40.357c0-4.6761-1.3291-8.1068-3.9875-10.2855c-2.6582-2.1787-6.2209-3.2698-10.6847-3.2698
		c-3.2988,0-6.2501,0.3992-8.8537,1.194c-2.6069,0.7982-4.9208,1.7314-6.9388,2.7935v57.739
		c-0.8528,0.3185-2.0725,0.6114-3.6688,0.8784c-1.593,0.2639-3.3503,0.3992-5.262,0.3992c-3.6173,0-6.3014-0.6662-8.0555-1.9953
		c-1.7539-1.3293-2.6326-3.6945-2.6326-7.0964V87.8552c0-2.5521,0.5311-4.6505,1.5963-6.2981
		c1.0589-1.6478,2.6551-3.1636,4.7823-4.5475c3.1927-2.1241,7.3122-3.907,12.3617-5.3422
		c5.0496-1.4354,10.6623-2.1531,16.8286-2.1531c10.7396,0,19.1137,2.3911,25.1223,7.1767
		C529.75,81.4766,532.7526,88.5502,532.7526,97.9058z"/>
	<path class="st1" d="M567.208,73.1026c1.6993,1.3293,2.5523,3.7494,2.5523,7.2572v66.512c-0.853,0.3185-2.0726,0.6114-3.669,0.8784
		c-1.5963,0.2639-3.3503,0.3992-5.2651,0.3992c-3.6142,0-6.3272-0.6662-8.1328-1.9953c-1.8086-1.3293-2.7131-3.6945-2.7131-7.0964
		V72.3849c0.8497-0.3185,2.0985-0.6114,3.7495-0.8785c1.6478-0.2639,3.4276-0.3992,5.3424-0.3992
		C562.7925,71.1073,565.5056,71.7735,567.208,73.1026z"/>
	<path class="st1" d="M551.6572,56.9921c-2.1819-2.1789-3.2698-4.7566-3.2698-7.7368c0-3.083,1.0879-5.6867,3.2698-7.8139
		c2.1755-2.1272,4.9144-3.1893,8.2131-3.1893c3.4019,0,6.1406,1.062,8.2133,3.1893c2.0758,2.1272,3.1121,4.7309,3.1121,7.8139
		c0,2.9802-1.0363,5.5579-3.1121,7.7368c-2.0726,2.1819-4.8113,3.2697-8.2133,3.2697
		C556.5716,60.2618,553.8327,59.174,551.6572,56.9921z"/>
	<g>
		<path class="st1" d="M97.8906,31.946c-1.0493-1.0922-1.6807-2.5479-1.5615-4.0578c0.0006-0.0083,0.0012-0.0165,0.0018-0.0249
			c0.5583-6.9589,4.0294-12.9918,9.1306-16.9972c1.8552-1.4567,1.1517-4.4354-1.1541-4.9325
			c-2.1605-0.4658-4.3786-0.7938-6.6395-0.9751c-12.5363-1.0057-24.35,2.681-33.7674,9.5565
			C27.45,9.845,14.4487,33.3833,10.408,44.4507c0,0-2.4981,6.4551-0.7129,11.8061c0.5229,1.567,1.1077,3.0967,1.9056,4.5199
			c-3.1555,4.4831-5.5494,9.5537-6.9858,15.0813l-0.0218,0.109c-0.2175,0.8703-0.3266,1.5016-0.3266,2.3285
			c0,3.5255,2.1546,6.3981,4.8096,6.3981c1.8064,0,3.3951-1.3277,4.2218-3.2862l0.0873-0.1741
			c6.8332-16.4741,22.9809-28.0299,41.7838-28.0299c25.0269,0,45.309,20.4567,45.309,45.6792c0,1.5888-0.0652,3.1338-0.1956,4.6789
			v0.0652c-0.5878,7.0728-2.5031,13.6668-5.6801,19.4121c-7.0946,12.9485-20.5439,21.5447-39.4333,21.5447l-2.5872,0.0058
			c-3.3272,0-7.3879-0.1835-12.066-0.5453c-4.3561-0.3401-8.4101-1.1434-12.03-2.3808c-4.5662-1.5823-4.5662-3.7031-4.5662-4.8425
			V93.839c0-1.335-1.0822-2.4172-2.4172-2.4172h0c-1.335,0-2.4172,1.0822-2.4172,2.4172v42.9818
			c0,4.467,2.6072,7.6049,7.8176,9.4105c4.0389,1.3806,8.4546,2.2592,13.2368,2.6326c4.7857,0.37,8.9341,0.5599,12.4422,0.5599
			l8.5718-0.096c29.9881,0.1306,55.4069-22.5893,57.8226-52.6866C121.0547,70.8573,112.5838,47.2395,97.8906,31.946z"/>
		<path class="st1" d="M73.735,121.4305c-4.8548,5.0523-11.6183,7.5771-20.2965,7.5771c-2.053,0-4.1062-0.0702-6.1563-0.2105
			c-2.0558-0.1375-3.9198-0.3926-5.6002-0.763v-57.698c1.6804-0.2806,3.4284-0.488,5.2501-0.6256
			c1.8187-0.1403,3.7528-0.2104,5.806-0.2104c5.4109,0,10.2398,1.0436,14.4876,3.1279c4.2445,2.087,7.605,5.2851,10.0787,9.5939
			c2.4711,4.3117,3.7083,9.897,3.7083,16.7529C81.0127,108.8939,78.584,116.3783,73.735,121.4305z"/>
		<path class="st3" d="M100.3259,103.3223c-0.0218,0.087-0.0218,0.1522-0.0436,0.2394c0.1304-1.5452,0.1958-3.0902,0.1958-4.679
			c0-25.2225-20.2824-45.6792-45.3091-45.6792c-18.803,0-34.9505,11.5558-41.7839,28.0299l-0.0871,0.1741
			c-0.827,1.9585-2.4156,3.2861-4.2218,3.2861c-2.6552,0-4.8097-2.8727-4.8097-6.3981c0-0.827,0.1089-1.4582,0.3265-2.3286
			l0.0218-0.1089c6.0718-23.4162,29.4881-38.911,54.5799-35.1461C85.9625,44.7161,104.9392,70.5046,100.3259,103.3223z"/>
	</g>
</g>
</svg>
