<?xml version="1.0" encoding="UTF-8"?>
<svg id="Layer_1" data-name="Layer 1" xmlns="http://www.w3.org/2000/svg" viewBox="0 0 185.23 26.99">
  <defs>
    <style>
      .cls-1 {
        fill: #8dc045;
      }

      .cls-1, .cls-2 {
        stroke-width: 0px;
      }

      .cls-2 {
        fill: #fff;
      }
    </style>
  </defs>
  <g id="Group_69" data-name="Group 69">
    <path id="Path_70" data-name="Path 70" class="cls-1" d="m16.94,21.56l-6.8-5.9,2.06-2.38,4.09,3.55L25.92,2.29l2.62,1.74-11.6,17.53Z"/>
    <g id="Group_64" data-name="Group 64">
      <g id="Group_63" data-name="Group 63">
        <path id="Path_71" data-name="Path 71" class="cls-2" d="m51.68,13.9v7.88h-2.62v-7.93c0-1.43-.62-2.1-1.94-2.1-1.1.01-1.98.91-1.97,2.01,0,.03,0,.06,0,.09v7.93h-2.6v-7.93c0-1.43-.62-2.1-1.95-2.1-1.09.02-1.97.92-1.95,2.01,0,.03,0,.06,0,.09v7.93h-2.62v-12.46h2.63v.58c.7-.56,1.57-.86,2.46-.84,1.16,0,2.25.52,2.97,1.42.9-.96,2.18-1.49,3.5-1.42,2.38,0,4.09,2.03,4.09,4.83"/>
      </g>
    </g>
    <path id="Path_72" data-name="Path 72" class="cls-2" d="m62.32,9.32l-3.45,7.74-3.15-7.74h-2.82l4.53,10.92-2.94,6.75h2.77l7.89-17.68h-2.83Z"/>
    <path id="Path_73" data-name="Path 73" class="cls-2" d="m84.5,9.14l-5.05,13.27-3.9-10.19-4.01,10.18-4.94-13.27h.98l4,10.74,3.98-10.16,3.89,10.16,4.07-10.74h.97Z"/>
    <g id="Group_66" data-name="Group 66">
      <g id="Group_65" data-name="Group 65">
        <path id="Path_74" data-name="Path 74" class="cls-2" d="m95.88,17.61c-.26.65-.63,1.24-1.11,1.75-.47.5-1.04.9-1.66,1.18-1.31.57-2.8.57-4.11,0-.63-.28-1.2-.68-1.67-1.18-.47-.51-.85-1.1-1.1-1.75-.54-1.39-.54-2.93,0-4.33.25-.65.63-1.25,1.1-1.76.47-.5,1.04-.9,1.67-1.18,1.31-.57,2.8-.57,4.11,0,.63.28,1.19.68,1.66,1.18.48.51.85,1.11,1.11,1.76.54,1.39.54,2.93,0,4.33m.81-4.7c-.3-.76-.74-1.45-1.29-2.04-.55-.58-1.21-1.05-1.94-1.37-1.53-.67-3.28-.67-4.81,0-.73.32-1.39.79-1.94,1.37-.56.59-.99,1.29-1.29,2.04-.32.8-.48,1.66-.47,2.53,0,.87.15,1.73.47,2.54.29.76.73,1.46,1.29,2.05,1.13,1.19,2.7,1.86,4.35,1.85,1.64.01,3.22-.66,4.35-1.85.56-.59,1-1.29,1.29-2.05.32-.81.48-1.67.47-2.54,0-.87-.16-1.72-.47-2.53"/>
        <path id="Path_75" data-name="Path 75" class="cls-2" d="m105.9,9.77l-.33.91-.23-.18c-.25-.18-.52-.32-.8-.43-.28-.1-.57-.16-.87-.16-.41,0-.81.09-1.17.27-.37.18-.7.44-.97.75-.28.33-.5.71-.64,1.12-.16.45-.24.92-.23,1.4v8.29h-.9v-12.6h.9v1.45c.27-.37.59-.7.97-.96.92-.64,2.09-.81,3.15-.45.35.12.67.28.97.49l.15.1Z"/>
      </g>
    </g>
    <path id="Path_76" data-name="Path 76" class="cls-2" d="m108.22,1.23v20.51h.89v-6.2l5.83,6.2h1.22l-6.54-7,5.73-5.6h-1.27l-4.97,4.85V1.23h-.89Z"/>
    <g id="Group_68" data-name="Group 68">
      <g id="Group_67" data-name="Group 67">
        <path id="Path_77" data-name="Path 77" class="cls-2" d="m128.16,17.66c-.21.64-.54,1.23-.98,1.75-.41.48-.92.87-1.5,1.13-1.23.54-2.62.54-3.85,0-.58-.26-1.09-.65-1.51-1.13-.44-.51-.77-1.11-.98-1.75-.46-1.46-.46-3.02,0-4.48.21-.64.54-1.22.98-1.73.42-.47.93-.85,1.5-1.1,1.23-.53,2.62-.53,3.85,0,.57.26,1.09.63,1.5,1.11.44.51.78,1.09.99,1.73.46,1.46.46,3.02,0,4.48m.81-4.8c-.26-.75-.66-1.44-1.17-2.04-1.01-1.18-2.5-1.85-4.05-1.82-1.15-.02-2.27.34-3.19,1.03-.65.48-1.18,1.1-1.57,1.81v-2.69h-.89v17.74h.89v-7.84c.39.71.92,1.33,1.57,1.81,1.59,1.14,3.67,1.34,5.46.53.68-.32,1.29-.78,1.78-1.35.51-.6.91-1.3,1.17-2.04.56-1.67.56-3.47,0-5.14"/>
        <path id="Path_78" data-name="Path 78" class="cls-2" d="m139.66,16.35c0,.42-.04.84-.11,1.25-.07.42-.24.81-.48,1.16-.26.39-.57.74-.93,1.03-.34.27-.71.5-1.1.69-.37.17-.75.29-1.14.38-.36.08-.72.11-1.08.12-.51.02-1.01-.09-1.46-.33-.68-.37-1.18-1-1.37-1.75-.08-.29-.13-.6-.14-.9,0-.43.08-.87.2-1.28.15-.48.44-.89.83-1.2.91-.63,2.01-.93,3.12-.86,1.24.03,2.47.2,3.67.5v1.19Zm.72-3.82c-.1-.66-.33-1.29-.67-1.86-.34-.53-.82-.95-1.39-1.23-.71-.31-1.48-.46-2.25-.43-.53.01-1.06.06-1.59.15-.73.12-1.45.34-2.13.65l-.21.09.37.87.2-.1c.6-.29,1.25-.49,1.91-.6.48-.08.96-.12,1.45-.13.61-.02,1.22.09,1.78.32.43.19.8.5,1.06.89.28.43.46.91.55,1.42.1.54.16,1.09.17,1.63-1.19-.28-2.41-.44-3.63-.46-1.31-.08-2.61.29-3.67,1.05-.53.42-.93.99-1.13,1.63-.16.51-.24,1.05-.26,1.58,0,.4.07.79.17,1.18.12.46.33.89.62,1.27.32.42.73.76,1.19,1.02.59.3,1.24.45,1.9.43.42,0,.84-.05,1.25-.13.46-.1.92-.24,1.35-.43.46-.21.9-.48,1.29-.79.36-.29.68-.63.96-1.01v2.23h.88v-6.91c0-.77-.05-1.55-.16-2.31"/>
        <path id="Path_79" data-name="Path 79" class="cls-2" d="m153.14,17.66c-.21.64-.54,1.23-.98,1.75-.42.48-.93.87-1.51,1.13-1.84.86-4.02.4-5.36-1.13-.44-.51-.77-1.11-.98-1.75-.46-1.46-.46-3.02,0-4.48.21-.64.54-1.22.98-1.73.42-.47.93-.85,1.51-1.1,1.23-.53,2.62-.53,3.85,0,.58.26,1.09.63,1.51,1.11.44.51.77,1.1.98,1.73.46,1.46.46,3.02,0,4.48m.81-4.8c-.26-.75-.66-1.44-1.17-2.04-1.01-1.18-2.49-1.85-4.05-1.82-1.15-.02-2.27.34-3.19,1.03-.65.49-1.18,1.1-1.57,1.81v-2.69h-.89v17.74h.89v-7.84c.39.71.92,1.33,1.57,1.81,1.59,1.14,3.67,1.34,5.46.53.68-.32,1.29-.78,1.79-1.35.51-.6.91-1.29,1.17-2.04.56-1.67.56-3.47,0-5.14"/>
        <path id="Path_80" data-name="Path 80" class="cls-2" d="m157.96,12.48c.25-.51.58-.97.99-1.36.4-.38.87-.67,1.38-.88.54-.21,1.11-.32,1.68-.32.61-.01,1.21.11,1.77.36.48.22.91.55,1.26.95.34.41.62.88.81,1.38.17.45.3.92.38,1.39h-8.76c.1-.53.27-1.04.5-1.52m-.63,2.45h9.88l-.02-.25c-.05-.8-.22-1.58-.49-2.33-.24-.66-.6-1.27-1.07-1.79-.44-.49-.98-.88-1.58-1.14-.64-.28-1.33-.42-2.03-.41-.78,0-1.55.16-2.27.48-.68.32-1.28.77-1.77,1.34-.51.61-.9,1.3-1.15,2.06-.54,1.68-.54,3.49,0,5.17.25.75.64,1.44,1.15,2.04.49.57,1.09,1.02,1.77,1.33.71.31,1.49.47,2.27.47.86,0,1.71-.14,2.52-.44.75-.28,1.43-.7,2.01-1.25l.16-.15-.57-.69-.17.16c-.51.46-1.09.82-1.73,1.06-.71.26-1.46.39-2.22.38-.66.01-1.3-.13-1.9-.4-.56-.27-1.07-.65-1.47-1.12-.43-.51-.76-1.1-.97-1.73-.24-.72-.36-1.48-.35-2.24v-.55"/>
        <path id="Path_81" data-name="Path 81" class="cls-2" d="m175.71,9.67l.14.1-.32.92-.24-.18c-.25-.18-.51-.32-.8-.43-.28-.1-.57-.16-.87-.16-.41,0-.81.09-1.18.27-.37.18-.7.44-.96.75-.28.33-.5.71-.64,1.12-.16.45-.24.92-.23,1.4v8.28h-.91v-12.6h.91v1.45c.27-.37.59-.7.97-.96.6-.42,1.32-.64,2.05-.63.37,0,.75.06,1.1.18.35.12.67.28.97.49"/>
        <path id="Path_82" data-name="Path 82" class="cls-2" d="m185.22,18.65c.02.54-.12,1.07-.38,1.54-.24.4-.57.74-.95,1-.39.25-.82.43-1.28.54-1.24.29-2.53.19-3.7-.3-.74-.32-1.4-.77-1.96-1.35l-.15-.15.59-.71.17.17c.48.49,1.05.89,1.68,1.17.99.43,2.09.53,3.14.29.36-.07.69-.21,1-.41.29-.18.53-.43.71-.72.19-.32.28-.69.27-1.06.01-.39-.06-.79-.21-1.15-.13-.28-.32-.53-.57-.72-.27-.2-.56-.35-.88-.47-.34-.12-.71-.25-1.09-.36l-.75-.22c-.31-.08-.65-.18-1.01-.31-.38-.13-.74-.32-1.05-.57-.34-.27-.63-.61-.83-1-.25-.5-.36-1.05-.34-1.61-.01-.51.11-1.01.34-1.47.22-.4.52-.75.89-1.02.37-.27.78-.47,1.22-.59.44-.12.89-.19,1.35-.19.64,0,1.28.09,1.89.29.6.21,1.16.53,1.64.95l.16.14-.51.73-.18-.14c-.41-.34-.88-.6-1.38-.78-.53-.17-1.08-.25-1.63-.25-.36,0-.71.05-1.05.15-.34.09-.65.24-.94.43-.27.19-.49.43-.65.71-.17.31-.25.67-.24,1.02-.02.4.06.8.23,1.17.14.28.34.52.59.71.25.18.52.33.82.43.31.11.62.21.93.29l.75.22c.4.12.8.24,1.2.38.4.14.77.35,1.1.61.33.28.6.62.79,1.01.22.5.32,1.03.3,1.57"/>
      </g>
    </g>
    <path id="Path_83" data-name="Path 83" class="cls-2" d="m0,0v17.58h2.1v-5.01h0V2.1h13.38s2.1,0,2.1,0V0H0Z"/>
    <path id="Path_84" data-name="Path 84" class="cls-2" d="m4.62,4.61v22.07h22.07v-15.83l-2.52,3.8v9.51H7.14V7.13h12.94l1.67-2.52H4.62Z"/>
  </g>
</svg>