<?xml version="1.0" encoding="UTF-8"?><svg id="Layer_1" xmlns="http://www.w3.org/2000/svg" viewBox="0 0 1009.59 346.15"><defs><style>.cls-1{fill:#00224c;}.cls-2{fill:#009a84;}</style></defs><path class="cls-2" d="M820.28,127.56l-43.85,78.75-44.58-78.75h-17.17v118.84h3.24c9.2,0,16.66-8.52,16.66-19.03v-58.66l36.91,64.28h9.47l36.75-65.51v61.65c0,9.54,6.77,17.27,15.13,17.27h4.93l-.32-118.84h-17.17Z"/><path class="cls-2" d="M927.63,176.79c-3.75-7.02-8.88-12.48-15.41-16.38-6.53-3.91-13.96-5.86-22.31-5.86s-16.19,2.01-22.87,6.03c-6.69,4.02-11.93,9.51-15.73,16.47-3.8,6.96-5.7,14.97-5.7,24.02s1.95,17.06,5.86,24.02c3.9,6.96,9.41,12.45,16.53,16.47,7.11,4.02,15.43,6.03,24.96,6.03,7.49,0,14.15-1.24,19.98-3.73,5.83-2.49,10.73-6.11,14.69-10.87l-2.28-2.76c-4.41-5.35-11.31-6.9-17.16-3.85-.57,.3-1.16,.58-1.75,.84-3.85,1.7-8.19,2.55-13,2.55-5.67,0-10.65-1.16-14.93-3.48-4.28-2.32-7.57-5.57-9.87-9.76-1.45-2.64-2.44-5.53-2.98-8.66h67.25c.11-.9,.19-1.95,.24-3.14,.05-1.19,.08-2.18,.08-2.97,0-9.62-1.87-17.94-5.62-24.96Zm-59.38,7.81c2.03-4.07,4.95-7.22,8.75-9.42,3.8-2.21,8.1-3.31,12.92-3.31s9.2,1.1,12.84,3.31c3.64,2.21,6.5,5.32,8.59,9.34,1.46,2.82,2.37,5.91,2.76,9.25h-48.57c.44-3.34,1.34-6.4,2.72-9.17Z"/><path class="cls-1" d="M340.08,246.4h3.37c9.66,0,17.49-8.94,17.49-19.97v-25.7h38.19c8.87,0,16.06-8.21,16.06-18.34h-54.25v-36.16h44.79c9.03,0,16.36-8.36,16.36-18.68h-82.01v118.84Z"/><path class="cls-1" d="M487.56,201.58c0,6-.96,11.04-2.89,15.11-1.93,4.07-4.65,7.13-8.19,9.17-3.53,2.04-7.65,3.06-12.36,3.06-6.31,0-11.23-2.01-14.77-6.03-3.53-4.02-5.3-10.04-5.3-18.08v-33.43c0-8.63-6.13-15.63-13.69-15.63h-6.53v51.78c0,9.06,1.58,16.55,4.73,22.5,3.16,5.94,7.52,10.36,13.08,13.24,5.56,2.89,11.98,4.33,19.26,4.33,6.63,0,12.73-1.58,18.3-4.75,3.7-2.11,6.79-4.8,9.31-8.06v11.62h19.1v-90.66h-20.06v45.84Z"/><path class="cls-1" d="M584.81,158.8c-5.3-2.83-11.42-4.24-18.38-4.24-7.49,0-14.1,1.59-19.82,4.75-3.82,2.11-6.99,4.82-9.55,8.09v-11.66h-19.1v90.66h19.9v-45.84c0-6.11,.99-11.18,2.97-15.19,1.98-4.02,4.79-7.05,8.43-9.08,3.64-2.04,7.81-3.06,12.52-3.06,6.52,0,11.56,1.98,15.09,5.94,3.53,3.96,5.3,9.96,5.3,18v31.97c0,9.53,6.77,17.26,15.12,17.26h4.94v-51.95c0-9.17-1.58-16.69-4.73-22.58-3.16-5.88-7.38-10.24-12.68-13.07Z"/><path class="cls-1" d="M685.33,120.43h-3.29v46.15c-2.39-2.85-5.11-5.2-8.19-7.01-5.67-3.34-12.09-5.01-19.26-5.01-8.24,0-15.65,1.93-22.23,5.77-6.58,3.85-11.74,9.28-15.49,16.3-3.75,7.02-5.62,15.17-5.62,24.45s1.87,17.57,5.62,24.53c3.74,6.96,8.91,12.37,15.49,16.21,6.58,3.85,13.99,5.77,22.23,5.77,7.49,0,14.04-1.67,19.66-5.01,3.42-2.03,6.38-4.73,8.91-8.08v11.9h19.1v-106.64c0-10.68-7.58-19.33-16.93-19.33Zm-6.26,95.67c-2.3,4.36-5.35,7.7-9.15,10.02-3.8,2.32-8.1,3.48-12.92,3.48s-9.12-1.16-12.92-3.48c-3.8-2.32-6.85-5.66-9.15-10.02-2.3-4.36-3.45-9.36-3.45-15.03s1.15-10.78,3.45-15.02c2.3-4.25,5.35-7.53,9.15-9.85,3.8-2.32,8.1-3.48,12.92-3.48s9.12,1.16,12.92,3.48c3.8,2.32,6.85,5.6,9.15,9.85,2.3,4.24,3.45,9.25,3.45,15.02s-1.15,10.67-3.45,15.03Z"/><g><path class="cls-2" d="M135,136.04l-20.89,19.46,109.35,90.53c7.96,6.59,17.27,6.64,24.25,.13l20.89-19.46-109.35-90.53c-7.96-6.59-17.27-6.64-24.25-.13Z"/><path class="cls-1" d="M176.23,99.99l-20.89,19.46,109.17,90.16c7.94,6.56,17.25,6.6,24.23,.09l20.89-19.46-109.17-90.16c-7.94-6.56-17.25-6.6-24.23-.09Z"/><path class="cls-1" d="M96.42,172.85l-20.08,17.81,56.92,47.48c6.85,5.71,15.75,5.91,23.19,.52l22.26-16.13-55.39-46.2c-7.79-6.49-18.43-9.61-26.89-3.48Z"/></g></svg>