<svg xmlns="http://www.w3.org/2000/svg" xmlns:xlink="http://www.w3.org/1999/xlink" width="412" height="70" viewBox="0 0 412 70">
  <defs>
    <clipPath id="clip-path">
      <rect id="Rectangle_812" data-name="Rectangle 812" width="412" height="70" fill="none"/>
    </clipPath>
  </defs>
  <g id="Group_2046" data-name="Group 2046" clip-path="url(#clip-path)">
    <path id="Path_3466" data-name="Path 3466" d="M71.608,0,0,.015V70H78.265L78.28,6.952A6.836,6.836,0,0,0,71.608,0" transform="translate(0 0)" fill="#e1783c"/>
    <path id="Path_3467" data-name="Path 3467" d="M174.9,23.068c-2.02-.153-2.157-.32-2.157-2.057V16.174c.573-1.473,1.42-2.266,2.1-2.266a1.392,1.392,0,0,1,1.106.556c.164.167.4.18.711.055a1.474,1.474,0,0,0,.846-1.291,1.46,1.46,0,0,0-1.529-1.32c-1.256,0-2.389,1.473-3.182,2.793h-.054V11.823a14.813,14.813,0,0,1-3.715,1.084v.584c1.5.209,1.639.32,1.639,2.057v5.463c0,1.737-.192,1.9-1.817,2.057v.681H174.9Z" transform="translate(76.564 5.351)" fill="#878787"/>
    <path id="Path_3468" data-name="Path 3468" d="M188.988,23.077c-1.544-.153-1.706-.264-1.706-2.057V14.807a4.738,4.738,0,0,1,2.868-1.348c1.76,0,2.389,1.2,2.389,3.016V20.88c0,1.822-.179,2.044-1.735,2.2v.694h5.477v-.68c-1.516-.154-1.653-.264-1.653-2.058v-5.1c0-2.571-1.324-4.016-3.4-4.016a4.048,4.048,0,0,0-2.185.792c-.655.444-1.23.834-1.762,1.238V11.832a15.608,15.608,0,0,1-3.66,1.084v.612c1.42.264,1.584.334,1.584,2.031V21.02c0,1.737-.137,1.877-1.926,2.057v.681h5.708Z" transform="translate(83.107 5.355)" fill="#878787"/>
    <path id="Path_3469" data-name="Path 3469" d="M184.828,22.3c-.451,0-.914-.4-.914-1.583V15.814a3.829,3.829,0,0,0-1.189-3.225,3.419,3.419,0,0,0-2.157-.709,11.73,11.73,0,0,0-3.946,1.849c-.5.375-.846.667-.846,1.056a1.285,1.285,0,0,0,1.16,1.139.732.732,0,0,0,.765-.612,3.711,3.711,0,0,1,.792-1.737,1.469,1.469,0,0,1,1.189-.527c1.31,0,2.211,1.084,2.211,2.988v.472a18.674,18.674,0,0,1-4.083,1.724,2.631,2.631,0,0,0-2.129,2.613,3.178,3.178,0,0,0,3.154,3.225c.792,0,2.048-.973,3.1-1.7a2.881,2.881,0,0,0,.628,1.2,2.143,2.143,0,0,0,1.243.5l2.238-1.349-.273-.709a2.014,2.014,0,0,1-.942.292m-2.949-.792a3.8,3.8,0,0,1-2.1.946,1.934,1.934,0,0,1-1.871-2.029c0-.946.574-1.445,1.612-1.932.546-.264,1.815-.821,2.362-1.113Z" transform="translate(79.661 5.377)" fill="#878787"/>
    <path id="Path_3470" data-name="Path 3470" d="M199.561,20.071Z" transform="translate(90.489 9.084)" fill="#878787"/>
    <path id="Path_3471" data-name="Path 3471" d="M199.421,18.942c1.134-1.32,1.612-1.862,2.266-2.516a5.22,5.22,0,0,1,3.4-1.557V14.2l-5.366.237v.681c1.243.138,1.324.347.792,1.166a22.734,22.734,0,0,1-1.871,2.321,2.833,2.833,0,0,1-1.653.918V7.086a19.724,19.724,0,0,1-3.8.931v.612c1.6.153,1.734.292,1.734,2.029v12.5c0,1.682-.163,1.9-1.924,2.057v.681h5.9V25.21c-1.693-.153-1.926-.32-1.926-2.057V20.221a1.583,1.583,0,0,1,.424-.083c.246,0,.477.139.818.584,1.448,1.765,3.1,3.877,4.315,5.225l3.6-.028v-.681a3.644,3.644,0,0,1-2.635-1.458c-.9-.931-3.551-4.046-4.083-4.837" transform="translate(87.516 3.207)" fill="#878787"/>
    <path id="Path_3472" data-name="Path 3472" d="M246.967,14.778c.792,1.862,1.98,5.059,3.032,8.075a1.661,1.661,0,0,1,.028,1.2,9.871,9.871,0,0,1-.82,1.822,5.659,5.659,0,0,1-1.952,2.349c-.452.277-.683.527-.683.944a1.522,1.522,0,0,0,1.5,1.265.8.8,0,0,0,.847-.639,57.128,57.128,0,0,1,2.716-7.158c1.817-4.364,2.635-6.547,3.292-7.95.708-1.515.955-1.723,2.349-1.932h-.028v-.626h-4.767v.668c1.5.208,1.682.5,1.366,1.5-.547,1.668-1.68,4.782-2.416,6.575l-2.391-6.63c-.342-.986-.218-1.251,1-1.46V12.11H244.7v.667c1.448.209,1.719.556,2.266,2" transform="translate(110.958 5.481)" fill="#878787"/>
    <path id="Path_3473" data-name="Path 3473" d="M103.065,24.06a5.947,5.947,0,0,0,4.288-2.557l-.423-.556a4.271,4.271,0,0,1-3,1.32c-1.843,0-3.891-1.473-3.918-5.074,3.126-.11,6.417-.375,6.868-.444.465-.125.6-.333.6-.861a4.085,4.085,0,0,0-3.946-4.016A5.307,5.307,0,0,0,99.665,13.8a6.822,6.822,0,0,0-1.734,4.628c0,2.988,1.9,5.629,5.134,5.629m-.177-11.2a2.422,2.422,0,0,1,2.321,2.641c0,.362-.164.529-.628.529-1.529.055-2.977.083-4.452.083.4-2.141,1.557-3.252,2.759-3.252" transform="translate(44.406 5.373)" fill="#878787"/>
    <path id="Path_3474" data-name="Path 3474" d="M259.281,25.878V25.2c-1.693-.153-1.9-.32-1.9-2.057V7.086a19.434,19.434,0,0,1-3.891.933v.639c1.651.125,1.815.208,1.815,2V23.168c0,1.737-.246,1.9-1.9,2.057v.654Z" transform="translate(114.906 3.207)" fill="#878787"/>
    <path id="Path_3475" data-name="Path 3475" d="M97.413,23.068c-2.02-.153-2.157-.32-2.157-2.057V16.174c.573-1.473,1.42-2.266,2.1-2.266a1.392,1.392,0,0,1,1.106.556c.164.167.4.18.711.055a1.474,1.474,0,0,0,.846-1.291,1.46,1.46,0,0,0-1.529-1.32c-1.256,0-2.389,1.473-3.182,2.793h-.054V11.823a14.813,14.813,0,0,1-3.715,1.084v.584c1.5.209,1.639.32,1.639,2.057v5.463c0,1.737-.177,1.9-1.817,2.057v.681h6.049Z" transform="translate(41.428 5.351)" fill="#878787"/>
    <path id="Path_3476" data-name="Path 3476" d="M273.381,23.068c-2.02-.153-2.157-.32-2.157-2.057V16.174c.573-1.473,1.42-2.266,2.1-2.266a1.392,1.392,0,0,1,1.106.556c.164.167.4.18.711.055a1.471,1.471,0,0,0,.846-1.291,1.46,1.46,0,0,0-1.529-1.32c-1.256,0-2.389,1.473-3.182,2.793h-.054V11.823a14.814,14.814,0,0,1-3.715,1.084v.584c1.5.209,1.639.32,1.639,2.057v5.463c0,1.737-.192,1.9-1.817,2.057v.681h6.049Z" transform="translate(121.22 5.351)" fill="#878787"/>
    <path id="Path_3477" data-name="Path 3477" d="M264.15,24.047c2.609,0,5.708-2.029,5.708-6.283a5.725,5.725,0,0,0-5.708-5.893,6.016,6.016,0,0,0-5.761,6.338,5.71,5.71,0,0,0,5.761,5.838m-.259-11.3c2.294,0,3.523,2.516,3.523,5.6,0,3.614-1.339,4.837-2.977,4.837-2.158,0-3.6-2.488-3.6-5.81,0-2.988,1.42-4.628,3.058-4.628" transform="translate(117.164 5.373)" fill="#878787"/>
    <path id="Path_3478" data-name="Path 3478" d="M126.124,25.248v-.667l-.846-.11h0c-.969-.112-1.16-.237-1.16-1.612V7.1a24.681,24.681,0,0,1-4.11.931v.639c1.9.125,2.022.209,2.022,1.96v3.726a6.11,6.11,0,0,0-1.735-.292,6.745,6.745,0,0,0-6.786,6.547c0,3.7,2.759,5.629,4.875,5.629a4.528,4.528,0,0,0,2.048-.764l1.612-.946v1.723a25.9,25.9,0,0,1,4.083-1m-6.609-.694c-1.68,0-3.6-1.53-3.6-4.67,0-3.836,2.212-4.865,3.427-4.865a3.274,3.274,0,0,1,2.716,1.348V23.65h-.013a4.457,4.457,0,0,1-2.526.9" transform="translate(51.469 3.212)" fill="#878787"/>
    <path id="Path_3479" data-name="Path 3479" d="M126.919,21.066V14.854a4.858,4.858,0,0,1,2.868-1.376c1.61,0,2.294,1.084,2.294,3.043v4.545c0,1.737-.233,1.877-1.871,2.029v.681h5.639V23.1c-1.448-.167-1.679-.32-1.679-1.987V15.952a5.98,5.98,0,0,0-.083-1.113,4.843,4.843,0,0,1,2.949-1.376c1.666,0,2.321,1.181,2.321,3.058v4.406c0,1.877-.286,1.989-1.843,2.141V23.8h5.6v-.681c-1.5-.153-1.706-.264-1.706-2.029v-5.1c0-2.6-1.3-4.046-3.346-4.046a3.586,3.586,0,0,0-1.98.681A22.982,22.982,0,0,0,133.9,14.1a3.143,3.143,0,0,0-2.923-2.167,3.917,3.917,0,0,0-2.157.709c-.792.5-1.379.972-1.926,1.348V11.851a15.817,15.817,0,0,1-3.658,1.084v.613c1.529.235,1.61.36,1.61,2.057v5.462c0,1.71-.246,1.877-1.98,2.029v.681h5.557V23.1c-1.3-.153-1.5-.305-1.5-2.029" transform="translate(55.712 5.364)" fill="#878787"/>
    <path id="Path_3480" data-name="Path 3480" d="M148.24,22.721l-.275-.709a2.013,2.013,0,0,1-.94.292c-.452,0-.916-.4-.916-1.583V15.814a3.829,3.829,0,0,0-1.189-3.225,3.415,3.415,0,0,0-2.155-.709,11.726,11.726,0,0,0-3.948,1.849c-.5.375-.846.667-.846,1.056a1.285,1.285,0,0,0,1.16,1.139.732.732,0,0,0,.765-.612,3.725,3.725,0,0,1,.792-1.737,1.47,1.47,0,0,1,1.19-.527c1.31,0,2.209,1.084,2.209,2.988v.472a18.642,18.642,0,0,1-4.083,1.724,2.631,2.631,0,0,0-2.129,2.613,3.178,3.178,0,0,0,3.154,3.225c.792,0,2.048-.973,3.1-1.7a2.882,2.882,0,0,0,.628,1.2,2.147,2.147,0,0,0,1.243.5Zm-4.166-1.209a3.8,3.8,0,0,1-2.1.946,1.934,1.934,0,0,1-1.869-2.029c0-.946.573-1.445,1.61-1.932.548-.264,1.815-.821,2.362-1.113Z" transform="translate(62.519 5.377)" fill="#878787"/>
    <path id="Path_3481" data-name="Path 3481" d="M156.823,21.034v-5.1c0-2.571-1.324-4.016-3.4-4.016a4.039,4.039,0,0,0-2.185.793c-.656.444-1.23.834-1.762,1.236V11.833a15.747,15.747,0,0,1-3.66,1.084v.612c1.42.264,1.584.334,1.584,2.029v5.462c0,1.737-.137,1.877-1.926,2.058v.68h5.708v-.68c-1.544-.154-1.706-.264-1.706-2.058V14.806a4.738,4.738,0,0,1,2.868-1.348c1.762,0,2.389,1.2,2.389,3.017v4.406c0,1.82-.179,2.042-1.734,2.2v.694h5.475v-.681c-1.516-.153-1.653-.264-1.653-2.057" transform="translate(65.965 5.356)" fill="#878787"/>
    <path id="Path_3482" data-name="Path 3482" d="M110.844,24.06a5.947,5.947,0,0,0,4.288-2.557l-.423-.556a4.271,4.271,0,0,1-3,1.32c-1.843,0-3.891-1.473-3.918-5.074,3.126-.11,6.417-.375,6.868-.444.478-.125.6-.333.6-.861a4.085,4.085,0,0,0-3.946-4.016,5.307,5.307,0,0,0-3.865,1.932,6.822,6.822,0,0,0-1.734,4.628c0,2.988,1.9,5.629,5.134,5.629m-.177-11.2a2.422,2.422,0,0,1,2.321,2.641c.013.362-.15.529-.628.529-1.529.055-2.977.083-4.452.083.4-2.141,1.557-3.252,2.759-3.252" transform="translate(47.933 5.373)" fill="#878787"/>
    <path id="Path_3483" data-name="Path 3483" d="M89.359,24.645c-2.4-.153-2.607-.32-2.607-2.586V17.279h2.716c2.389,0,2.5.32,2.84,2.112h.737V14.318h-.737c-.342,1.7-.451,1.932-2.84,1.932H86.752V9.968c0-.766.081-.821.846-.821h1.994c2.007,0,2.58.209,3,.946a5.176,5.176,0,0,1,.738,2.112l.792-.11c-.124-1.238-.26-2.933-.26-3.878H82.287v.751c2.033.153,2.238.292,2.238,2.586V22.059c0,2.266-.218,2.433-2.321,2.586v.736h7.155Z" transform="translate(37.275 3.719)" fill="#878787"/>
    <path id="Path_3484" data-name="Path 3484" d="M164.227,22.059V17.277h2.716c2.391,0,2.5.321,2.841,2.114h.737V14.317h-.737c-.342,1.7-.451,1.932-2.841,1.932h-2.716V9.966c0-.764.081-.819.846-.819h2.007c2.007,0,2.581.208,3,.946a5.148,5.148,0,0,1,.737,2.112l.779-.112c-.124-1.236-.26-2.933-.26-3.877H159.762v.751c2.035.153,2.24.291,2.24,2.584V22.059c0,2.266-.219,2.432-2.321,2.586v.736h7.154v-.736c-2.4-.154-2.607-.32-2.607-2.586" transform="translate(72.406 3.719)" fill="#878787"/>
    <path id="Path_3485" data-name="Path 3485" d="M208.034,25.2c-1.693-.153-1.9-.32-1.9-2.057V7.086a19.441,19.441,0,0,1-3.891.931v.641c1.651.125,1.815.208,1.815,2v12.51c0,1.737-.246,1.9-1.9,2.057v.654h5.872Z" transform="translate(91.669 3.207)" fill="#878787"/>
    <path id="Path_3486" data-name="Path 3486" d="M216.782,25.821c1.871,0,3.6-.944,5.5-3.515.875.931,1.981,2.167,2.295,2.557a6.6,6.6,0,0,0,3.208,1.085l.192-.264a30.7,30.7,0,0,0-4.288-5.309c.929-1.4,1.557-2.488,2.294-3.517A3.3,3.3,0,0,1,229,14.91v-.736h-6.022v.736c1.871.237,2.1.556,1.612,1.765a18.121,18.121,0,0,1-1.584,3.045c-1.679-1.724-3.549-3.35-4.424-4.1a24.833,24.833,0,0,0,2.131-1.585,3.03,3.03,0,0,0,1.106-2.321,3.719,3.719,0,0,0-3.892-3.64,4.252,4.252,0,0,0-4.314,4.169,4.989,4.989,0,0,0,1.9,3.669c-2.212,1.612-3.946,2.668-3.946,5.1a4.957,4.957,0,0,0,5.215,4.808m.888-16.846c1.283,0,2.185,1.265,2.185,2.78a3.989,3.989,0,0,1-1.952,3.377c-1.584-1.209-2.389-2.14-2.389-3.517,0-1.583.914-2.641,2.157-2.641m-1.488,7.52a50.661,50.661,0,0,1,5.475,5.1,5.469,5.469,0,0,1-4.232,2.4,3.572,3.572,0,0,1-3.632-3.724c0-1.293.655-2.558,2.389-3.781" transform="translate(95.933 3.654)" fill="#878787"/>
    <path id="Path_3487" data-name="Path 3487" d="M242.642,7.766H242.1a1.392,1.392,0,0,1-1.337.654H230.367c-.737,0-1.078-.042-1.446-.654h-.533c-.054,1.445-.177,3.17-.314,4.753h.765a8.362,8.362,0,0,1,.847-2.349c.342-.612.874-.819,3.058-.819h1.638V22.333c0,2.1-.218,2.362-2.607,2.516v.75h7.551v-.736c-2.512-.167-2.716-.43-2.716-2.516v-13h1.871c1.965,0,2.416.18,2.84.819a6.334,6.334,0,0,1,.846,2.349l.737-.083c-.122-1.53-.259-3.462-.259-4.67" transform="translate(103.418 3.515)" fill="#878787"/>
    <path id="Path_3488" data-name="Path 3488" d="M248.15,22.721l-.259-.709a2.019,2.019,0,0,1-.942.292c-.451,0-.929-.4-.929-1.583V15.814a3.829,3.829,0,0,0-1.189-3.225,3.419,3.419,0,0,0-2.157-.709,11.73,11.73,0,0,0-3.946,1.849c-.5.375-.846.667-.846,1.056a1.285,1.285,0,0,0,1.16,1.139.732.732,0,0,0,.765-.612,3.711,3.711,0,0,1,.792-1.737,1.469,1.469,0,0,1,1.189-.527c1.31,0,2.211,1.084,2.211,2.988v.472a18.674,18.674,0,0,1-4.083,1.724,2.631,2.631,0,0,0-2.129,2.613,3.178,3.178,0,0,0,3.154,3.225c.792,0,2.048-.973,3.1-1.7a2.882,2.882,0,0,0,.628,1.2,2.143,2.143,0,0,0,1.243.5Zm-4.164-1.209a3.8,3.8,0,0,1-2.1.946,1.934,1.934,0,0,1-1.871-2.029c0-.946.574-1.445,1.612-1.932.546-.264,1.815-.821,2.362-1.113Z" transform="translate(107.823 5.377)" fill="#878787"/>
    <path id="Path_3489" data-name="Path 3489" d="M85.766,42.161c-.846,0-2.28-.694-2.28-2.808,0-1.585.874-2.419,1.871-2.419a2.161,2.161,0,0,1,1.516.626c.137.125.2.167.286.167a.738.738,0,0,0,.491-.654A.577.577,0,0,0,87.4,36.6a2.228,2.228,0,0,0-1.337-.389,3.965,3.965,0,0,0-2.28.847,3.671,3.671,0,0,0-1.516,2.975,3.024,3.024,0,0,0,3.017,3.17,3.614,3.614,0,0,0,2.567-1.543l-.246-.334a2.437,2.437,0,0,1-1.843.834" transform="translate(37.305 16.391)" fill="#878787"/>
    <path id="Path_3490" data-name="Path 3490" d="M146.686,36.222a3.447,3.447,0,0,0-3.3,3.642,3.279,3.279,0,0,0,3.3,3.35,3.373,3.373,0,0,0,3.278-3.614,3.284,3.284,0,0,0-3.278-3.377m.164,6.477c-1.243,0-2.076-1.418-2.076-3.335,0-1.71.82-2.655,1.749-2.655,1.31,0,2.02,1.445,2.02,3.21.013,2.086-.751,2.78-1.693,2.78" transform="translate(65.015 16.395)" fill="#878787"/>
    <path id="Path_3491" data-name="Path 3491" d="M155.2,41.329V36.27a15.409,15.409,0,0,1-2.376.277V36.9c1.08.138,1.174.208,1.174,1.069V41.5a2.3,2.3,0,0,1-1.625.722c-.669,0-1.324-.36-1.324-1.71V38.479c0-1.028,0-1.737.041-2.209a16.418,16.418,0,0,1-2.157.277V36.9c.86.166.914.222.914,1.056v2.975c0,1.625.86,2.252,1.871,2.252a2.081,2.081,0,0,0,1.161-.376A13.314,13.314,0,0,0,154,42.011v1.071l.1.1a18.915,18.915,0,0,1,2.225-.543v-.389l-.423-.028c-.573-.028-.7-.125-.7-.889" transform="translate(67.533 16.416)" fill="#878787"/>
    <path id="Path_3492" data-name="Path 3492" d="M256.589,41.42V36.193a9.516,9.516,0,0,1-2.144.6v.36c.916.154.956.209.956,1.155v3.127c0,1.028-.1,1.111-1.052,1.209v.375h3.318v-.389c-.969-.083-1.078-.18-1.078-1.209" transform="translate(115.333 16.381)" fill="#878787"/>
    <path id="Path_3493" data-name="Path 3493" d="M233.74,39.049c-.683-.292-1.283-.639-1.283-1.32a.99.99,0,0,1,.983-1.043c.738,0,1.27.612,1.557,1.5l.4-.084a10.254,10.254,0,0,0-.329-1.625,3.388,3.388,0,0,0-1.337-.264,2.087,2.087,0,0,0-2.295,1.96c0,1.168.984,1.655,1.885,2.086.75.347,1.187.707,1.187,1.376a1.063,1.063,0,0,1-1.078,1.056c-.9,0-1.584-.876-1.857-1.877l-.4.07a6.924,6.924,0,0,0,.246,1.793,3.073,3.073,0,0,0,1.734.514,2.263,2.263,0,0,0,2.485-2.085c0-1.042-.765-1.585-1.9-2.057" transform="translate(104.824 16.391)" fill="#878787"/>
    <path id="Path_3494" data-name="Path 3494" d="M93.35,42.7V40.046c0-1.806-.86-2.584-2.089-2.584A3.321,3.321,0,0,0,89.1,38.573V33.486a18.087,18.087,0,0,1-2.225.529v.347c1,.1,1.025.167,1.025,1.126v7.228c0,1-.137,1.1-1.038,1.166v.389H90.06v-.389c-.888-.1-.969-.195-.969-1.166V39.1a2.129,2.129,0,0,1,1.57-.779c1.01,0,1.475.626,1.475,1.862V42.7c0,.986-.124,1.071-1,1.168v.389h3.209v-.389c-.888-.07-1-.167-1-1.168" transform="translate(39.388 15.156)" fill="#878787"/>
    <path id="Path_3495" data-name="Path 3495" d="M229.522,39.049c-.683-.292-1.283-.639-1.283-1.32a.991.991,0,0,1,.983-1.043c.738,0,1.27.612,1.557,1.5l.4-.084a10.253,10.253,0,0,0-.328-1.625,3.389,3.389,0,0,0-1.337-.264,2.087,2.087,0,0,0-2.3,1.96c0,1.168.984,1.655,1.885,2.086.75.347,1.187.707,1.187,1.376a1.063,1.063,0,0,1-1.078,1.056c-.9,0-1.584-.876-1.857-1.877l-.4.07a6.924,6.924,0,0,0,.246,1.793,3.073,3.073,0,0,0,1.734.514,2.263,2.263,0,0,0,2.485-2.085c0-1.042-.764-1.585-1.9-2.057" transform="translate(102.911 16.391)" fill="#878787"/>
    <path id="Path_3496" data-name="Path 3496" d="M170.445,42.032a1.1,1.1,0,0,1-.546.167c-.259,0-.532-.222-.532-.9V38.475a2.2,2.2,0,0,0-.683-1.849,1.939,1.939,0,0,0-1.243-.4,6.972,6.972,0,0,0-2.266,1.056c-.288.208-.478.375-.478.612a.745.745,0,0,0,.669.654.426.426,0,0,0,.437-.349,2.229,2.229,0,0,1,.451-1,.861.861,0,0,1,.683-.306c.75,0,1.269.626,1.269,1.71v.277a10.561,10.561,0,0,1-2.334.988,1.523,1.523,0,0,0-1.23,1.5,1.824,1.824,0,0,0,1.817,1.849,4.638,4.638,0,0,0,1.775-.973,1.509,1.509,0,0,0,.369.681,1.205,1.205,0,0,0,.709.292l1.283-.779Zm-2.212-.277h-.013a2.123,2.123,0,0,1-1.2.542,1.112,1.112,0,0,1-1.078-1.168c0-.542.327-.834.929-1.111.314-.153,1.038-.472,1.365-.639Z" transform="translate(74.655 16.395)" fill="#878787"/>
    <path id="Path_3497" data-name="Path 3497" d="M98.294,42.2c-.26,0-.533-.222-.533-.9V38.475a2.2,2.2,0,0,0-.683-1.849,1.935,1.935,0,0,0-1.241-.4,6.982,6.982,0,0,0-2.267,1.056c-.286.208-.478.375-.478.612a.746.746,0,0,0,.67.654A.425.425,0,0,0,94.2,38.2a2.261,2.261,0,0,1,.451-1,.863.863,0,0,1,.683-.306c.751,0,1.27.626,1.27,1.71v.277a10.611,10.611,0,0,1-2.336.988,1.522,1.522,0,0,0-1.228,1.5,1.823,1.823,0,0,0,1.815,1.849,4.784,4.784,0,0,0,1.789-.973,1.52,1.52,0,0,0,.368.681,1.209,1.209,0,0,0,.711.292L99,42.436l-.164-.4a1.09,1.09,0,0,1-.545.167m-1.68-.445a2.119,2.119,0,0,1-1.2.542,1.113,1.113,0,0,1-1.078-1.168c0-.542.328-.834.916-1.111.314-.153,1.038-.472,1.365-.639Z" transform="translate(42.187 16.395)" fill="#878787"/>
    <path id="Path_3498" data-name="Path 3498" d="M260.223,39.049c-.683-.292-1.283-.639-1.283-1.32a.991.991,0,0,1,.983-1.043c.738,0,1.27.612,1.557,1.5l.4-.084a10.248,10.248,0,0,0-.328-1.625,3.389,3.389,0,0,0-1.337-.264,2.087,2.087,0,0,0-2.295,1.96c0,1.168.984,1.655,1.885,2.086.751.347,1.187.707,1.187,1.376a1.063,1.063,0,0,1-1.078,1.056c-.9,0-1.584-.876-1.857-1.877l-.4.07a6.92,6.92,0,0,0,.246,1.793,3.072,3.072,0,0,0,1.734.514,2.263,2.263,0,0,0,2.485-2.085c0-1.042-.765-1.585-1.9-2.057" transform="translate(116.832 16.391)" fill="#878787"/>
    <path id="Path_3499" data-name="Path 3499" d="M161.435,41.461V38.543c0-1.474-.765-2.308-1.952-2.308a2.293,2.293,0,0,0-1.257.459c-.382.25-.709.487-1.01.709V36.194a9.229,9.229,0,0,1-2.1.625v.347c.807.154.9.195.9,1.168v3.142c0,1-.081,1.069-1.106,1.181v.389h3.277v-.389c-.888-.084-.982-.153-.982-1.181V37.917a2.709,2.709,0,0,1,1.651-.779c1.012,0,1.379.681,1.379,1.724v2.529c0,1.043-.109,1.153-1,1.251v.389h3.154v-.389c-.875-.083-.956-.153-.956-1.181" transform="translate(70.242 16.382)" fill="#878787"/>
    <path id="Path_3500" data-name="Path 3500" d="M163.91,42.93c-.382,0-.874-.237-.874-1.46V37.579h1.61a.43.43,0,0,0,.1-.6h-1.706V34.911l-.2-.028-.984,1V37h-.7l-.41.444.055.154h1.038V42c0,1.2.519,1.807,1.475,1.807a1.482,1.482,0,0,0,.628-.195l1.051-.556-.137-.389a2.107,2.107,0,0,1-.942.264" transform="translate(72.887 15.789)" fill="#878787"/>
    <path id="Path_3501" data-name="Path 3501" d="M233.8,37.572Z" transform="translate(106.016 17.006)" fill="#878787"/>
    <path id="Path_3502" data-name="Path 3502" d="M175.987,41.461V38.543c0-1.474-.765-2.308-1.952-2.308a2.293,2.293,0,0,0-1.257.459c-.382.25-.709.487-1.01.709V36.194a9.229,9.229,0,0,1-2.1.625v.347c.807.154.9.195.9,1.168v3.142c0,1-.081,1.069-1.106,1.181v.389h3.278v-.389c-.888-.084-.983-.153-.983-1.181V37.917a2.709,2.709,0,0,1,1.651-.779c1.012,0,1.379.681,1.379,1.724v2.529c0,1.043-.109,1.153-1,1.251v.389h3.154v-.389c-.875-.083-.956-.153-.956-1.181" transform="translate(76.84 16.382)" fill="#878787"/>
    <path id="Path_3503" data-name="Path 3503" d="M253.24,36.7c.86.112.956.277.724,1-.329.986-.805,2.376-1.339,3.627-.436-1.084-1.038-2.682-1.433-3.739-.246-.652-.219-.764.6-.874v-.376h-3.1v.376c.818.125.942.235,1.283,1.111.709,1.765,1.406,3.489,2.089,5.309h.41c.833-2.252,1.625-4.114,2.129-5.254.41-.917.533-1.042,1.326-1.153v-.4h-2.69Z" transform="translate(112.768 16.443)" fill="#878787"/>
    <path id="Path_3504" data-name="Path 3504" d="M133.936,42.2c-.26,0-.532-.222-.532-.9V38.475a2.2,2.2,0,0,0-.683-1.849,1.942,1.942,0,0,0-1.243-.4,7,7,0,0,0-2.267,1.056c-.286.208-.477.375-.477.612a.745.745,0,0,0,.669.654.426.426,0,0,0,.438-.349,2.229,2.229,0,0,1,.451-1,.86.86,0,0,1,.682-.306c.751,0,1.27.626,1.27,1.71v.277a10.561,10.561,0,0,1-2.334.988,1.522,1.522,0,0,0-1.23,1.5,1.823,1.823,0,0,0,1.817,1.849,4.78,4.78,0,0,0,1.788-.973,1.523,1.523,0,0,0,.369.681,1.209,1.209,0,0,0,.709.292l1.283-.779-.163-.4a1.1,1.1,0,0,1-.546.167m-1.693-.445a2.118,2.118,0,0,1-1.2.542,1.113,1.113,0,0,1-1.078-1.168c0-.542.328-.834.916-1.111.314-.153,1.038-.472,1.365-.639Z" transform="translate(58.348 16.395)" fill="#878787"/>
    <path id="Path_3505" data-name="Path 3505" d="M243.5,42.2c-.26,0-.533-.222-.533-.9V38.475a2.2,2.2,0,0,0-.683-1.849,1.936,1.936,0,0,0-1.243-.4,6.987,6.987,0,0,0-2.266,1.056c-.286.208-.478.375-.478.612a.746.746,0,0,0,.67.654.425.425,0,0,0,.436-.349,2.261,2.261,0,0,1,.451-1,.863.863,0,0,1,.683-.306c.751,0,1.27.626,1.27,1.71v.277a10.611,10.611,0,0,1-2.336.988,1.522,1.522,0,0,0-1.228,1.5,1.823,1.823,0,0,0,1.815,1.849,4.638,4.638,0,0,0,1.775-.973,1.522,1.522,0,0,0,.369.681,1.209,1.209,0,0,0,.711.292l1.283-.779-.151-.4a1.09,1.09,0,0,1-.545.167m-1.68-.445H241.8a2.123,2.123,0,0,1-1.2.542,1.112,1.112,0,0,1-1.078-1.168c0-.542.327-.834.929-1.111.314-.153,1.038-.472,1.365-.639Z" transform="translate(108.027 16.395)" fill="#878787"/>
    <path id="Path_3506" data-name="Path 3506" d="M114.843,36.226c-.724,0-1.379.848-1.83,1.612H113V36.184a8.649,8.649,0,0,1-2.131.626v.334c.86.125.942.18.942,1.181v3.141c0,1-.094,1.085-1.038,1.182v.389h3.469v-.389c-1.161-.084-1.243-.182-1.243-1.182V38.687c.327-.848.805-1.307,1.2-1.307a.823.823,0,0,1,.629.32.376.376,0,0,0,.408.028.819.819,0,0,0,.478-.736.832.832,0,0,0-.874-.764" transform="translate(50.229 16.377)" fill="#878787"/>
    <path id="Path_3507" data-name="Path 3507" d="M125.994,42.525V33.477a13.375,13.375,0,0,1-2.362.527v.362c1.093.07,1.161.125,1.161,1.126v2.141a3.3,3.3,0,0,0-1-.167,3.873,3.873,0,0,0-3.892,3.752,3.025,3.025,0,0,0,2.8,3.225A2.7,2.7,0,0,0,123.878,44l.916-.542v.986a14.62,14.62,0,0,1,2.334-.569V43.5l-.464-.057c-.561-.055-.67-.138-.67-.917m-1.187.444a2.509,2.509,0,0,1-1.448.514c-.969,0-2.076-.876-2.076-2.683,0-2.2,1.27-2.793,1.967-2.793a1.859,1.859,0,0,1,1.557.779Z" transform="translate(54.37 15.152)" fill="#878787"/>
    <path id="Path_3508" data-name="Path 3508" d="M249.995,43.442c-.561-.055-.67-.138-.67-.917V33.477a13.376,13.376,0,0,1-2.362.527v.362c1.093.07,1.161.125,1.161,1.126v2.141a3.36,3.36,0,0,0-1-.167,3.873,3.873,0,0,0-3.892,3.752,3.025,3.025,0,0,0,2.8,3.225A2.7,2.7,0,0,0,247.209,44l.929-.542v.986a14.619,14.619,0,0,1,2.334-.569V43.5Zm-1.857-.472a2.509,2.509,0,0,1-1.448.514c-.969,0-2.076-.876-2.076-2.683,0-2.2,1.27-2.793,1.966-2.793a1.859,1.859,0,0,1,1.557.779Z" transform="translate(110.293 15.152)" fill="#878787"/>
    <path id="Path_3509" data-name="Path 3509" d="M137.182,42.161c-.846,0-2.28-.694-2.28-2.808,0-1.585.874-2.419,1.871-2.419a2.161,2.161,0,0,1,1.516.626c.137.125.2.167.286.167a.738.738,0,0,0,.491-.654.577.577,0,0,0-.246-.472,2.228,2.228,0,0,0-1.337-.389,3.966,3.966,0,0,0-2.28.847,3.671,3.671,0,0,0-1.516,2.975A3.024,3.024,0,0,0,136.7,43.2a3.614,3.614,0,0,0,2.567-1.543l-.246-.334a2.437,2.437,0,0,1-1.843.834" transform="translate(60.619 16.391)" fill="#878787"/>
    <path id="Path_3510" data-name="Path 3510" d="M143.868,41.328a2.437,2.437,0,0,1-1.843.834c-.847,0-2.28-.694-2.28-2.808,0-1.585.874-2.419,1.871-2.419a2.164,2.164,0,0,1,1.516.626c.137.125.218.167.286.167a.731.731,0,0,0,.506-.654.583.583,0,0,0-.246-.472,2.236,2.236,0,0,0-1.339-.389,3.966,3.966,0,0,0-2.28.847,3.671,3.671,0,0,0-1.516,2.975,3.025,3.025,0,0,0,3.017,3.17,3.619,3.619,0,0,0,2.568-1.543h0Z" transform="translate(62.821 16.391)" fill="#878787"/>
    <path id="Path_3511" data-name="Path 3511" d="M118.2,36.213a3.045,3.045,0,0,0-2.227,1.113,3.95,3.95,0,0,0-1,2.654,3,3,0,0,0,2.95,3.225,3.426,3.426,0,0,0,2.458-1.473l-.246-.32a2.486,2.486,0,0,1-1.721.764c-1.051,0-2.24-.848-2.253-2.905,1.8-.055,3.686-.208,3.946-.264s.355-.18.355-.485a2.346,2.346,0,0,0-2.266-2.308m.6,2.391c-.874.028-1.706.042-2.554.042.233-1.223.888-1.862,1.584-1.862a1.38,1.38,0,0,1,1.324,1.514c.015.209-.081.307-.355.307" transform="translate(52.133 16.391)" fill="#878787"/>
    <path id="Path_3512" data-name="Path 3512" d="M137.529,39.964Z" transform="translate(62.361 18.088)" fill="#878787"/>
    <path id="Path_3513" data-name="Path 3513" d="M101.991,36.226c-.724,0-1.379.848-1.83,1.612h-.013V36.184a8.648,8.648,0,0,1-2.131.626v.334c.86.125.942.18.942,1.181v3.141c0,1-.094,1.085-1.038,1.182v.389h3.469v-.389c-1.161-.084-1.243-.182-1.243-1.182V38.687c.327-.848.805-1.307,1.2-1.307a.823.823,0,0,1,.629.32.376.376,0,0,0,.408.028.819.819,0,0,0,.478-.736.832.832,0,0,0-.874-.764" transform="translate(44.402 16.377)" fill="#878787"/>
    <path id="Path_3514" data-name="Path 3514" d="M105.337,42.93c-.382,0-.874-.237-.874-1.46V37.579h1.61a.43.43,0,0,0,.1-.6h-1.706V34.911l-.2-.028-.984,1V37h-.7l-.41.444.055.154h1.038V42c0,1.2.519,1.807,1.475,1.807a1.541,1.541,0,0,0,.628-.195l1.051-.556-.137-.389a2.106,2.106,0,0,1-.942.264" transform="translate(46.327 15.789)" fill="#878787"/>
    <path id="Path_3515" data-name="Path 3515" d="M109.148,36.213a3.045,3.045,0,0,0-2.227,1.113,3.949,3.949,0,0,0-1,2.654,3,3,0,0,0,2.949,3.225,3.426,3.426,0,0,0,2.458-1.473l-.246-.32a2.486,2.486,0,0,1-1.721.764c-1.051,0-2.24-.848-2.253-2.905,1.8-.055,3.686-.208,3.946-.264s.355-.18.355-.485a2.346,2.346,0,0,0-2.266-2.308m.6,2.391c-.874.028-1.706.042-2.554.042.233-1.223.888-1.862,1.584-1.862A1.38,1.38,0,0,1,110.1,38.3c0,.209-.081.307-.355.307" transform="translate(48.031 16.391)" fill="#878787"/>
    <path id="Path_3516" data-name="Path 3516" d="M255.654,35.8a.778.778,0,0,0,.765-.779.753.753,0,0,0-.751-.792.786.786,0,0,0-.013,1.57" transform="translate(115.584 15.494)" fill="#878787"/>
    <path id="Path_3517" data-name="Path 3517" d="M222.377,41.461V38.543c0-1.474-.765-2.308-1.952-2.308a2.294,2.294,0,0,0-1.257.459c-.382.25-.709.487-1.01.709V36.194a9.229,9.229,0,0,1-2.1.625v.347c.807.154.9.195.9,1.168v3.142c0,1-.081,1.069-1.106,1.181v.389h3.277v-.389c-.888-.084-.982-.153-.982-1.181V37.917a2.709,2.709,0,0,1,1.651-.779c1.012,0,1.379.681,1.379,1.724v2.529c0,1.043-.109,1.153-1,1.251v.389h3.154v-.389c-.875-.083-.956-.153-.956-1.181" transform="translate(97.876 16.382)" fill="#878787"/>
    <path id="Path_3518" data-name="Path 3518" d="M274.456,39.049c-.683-.292-1.283-.639-1.283-1.32a.99.99,0,0,1,.983-1.043c.738,0,1.27.612,1.557,1.5l.4-.084a10.258,10.258,0,0,0-.328-1.625,3.389,3.389,0,0,0-1.337-.264,2.087,2.087,0,0,0-2.3,1.96c0,1.168.984,1.655,1.885,2.086.75.347,1.187.707,1.187,1.376a1.063,1.063,0,0,1-1.079,1.056c-.9,0-1.584-.876-1.857-1.877l-.4.07a6.923,6.923,0,0,0,.246,1.793,3.072,3.072,0,0,0,1.734.514,2.263,2.263,0,0,0,2.485-2.085c0-1.042-.765-1.585-1.9-2.057" transform="translate(123.286 16.391)" fill="#878787"/>
    <path id="Path_3519" data-name="Path 3519" d="M208.665,41.329V36.27a15.409,15.409,0,0,1-2.376.277V36.9c1.08.138,1.174.208,1.174,1.069V41.5a2.3,2.3,0,0,1-1.625.722c-.669,0-1.324-.36-1.324-1.71V38.479c0-1.028,0-1.737.041-2.209a16.418,16.418,0,0,1-2.157.277V36.9c.86.166.914.222.914,1.056v2.975c0,1.625.86,2.252,1.871,2.252a2.081,2.081,0,0,0,1.161-.376,13.311,13.311,0,0,0,1.119-.792v1.071l.1.1a18.918,18.918,0,0,1,2.225-.543v-.389l-.423-.028c-.573-.028-.7-.125-.7-.889" transform="translate(91.776 16.416)" fill="#878787"/>
    <path id="Path_3520" data-name="Path 3520" d="M178.472,42.93c-.382,0-.874-.237-.874-1.46V37.579h1.61a.43.43,0,0,0,.1-.6H177.6V34.911l-.2-.028-.985,1V37h-.695l-.41.444.055.154H176.4V42c0,1.2.519,1.807,1.475,1.807a1.482,1.482,0,0,0,.628-.195l1.051-.556-.137-.389a2.107,2.107,0,0,1-.942.264" transform="translate(79.49 15.789)" fill="#878787"/>
    <path id="Path_3521" data-name="Path 3521" d="M213.2,35.025a.758.758,0,1,0,1.516,0,.754.754,0,0,0-.751-.792.782.782,0,0,0-.765.792" transform="translate(96.674 15.494)" fill="#878787"/>
    <path id="Path_3522" data-name="Path 3522" d="M271.65,36.226c-.724,0-1.379.848-1.83,1.612h-.028V36.184a8.656,8.656,0,0,1-2.129.626v.334c.86.125.942.18.942,1.181v3.141c0,1-.1,1.085-1.038,1.182v.389h3.468v-.389c-1.174-.084-1.243-.182-1.243-1.182V38.687c.342-.848.82-1.307,1.215-1.307a.823.823,0,0,1,.629.32.375.375,0,0,0,.408.028.819.819,0,0,0,.478-.736.832.832,0,0,0-.874-.764" transform="translate(121.326 16.377)" fill="#878787"/>
    <path id="Path_3523" data-name="Path 3523" d="M225.254,36.213a3.067,3.067,0,0,0-2.225,1.113,3.943,3.943,0,0,0-1,2.654,3,3,0,0,0,2.949,3.225,3.423,3.423,0,0,0,2.458-1.473l-.246-.32a2.483,2.483,0,0,1-1.719.764c-1.052,0-2.24-.848-2.254-2.905,1.8-.055,3.687-.208,3.946-.264.288-.055.356-.18.356-.485a2.346,2.346,0,0,0-2.267-2.308m.615,2.391c-.874.028-1.706.042-2.554.042.233-1.223.888-1.862,1.584-1.862a1.38,1.38,0,0,1,1.324,1.514c0,.209-.1.307-.355.307" transform="translate(100.679 16.391)" fill="#878787"/>
    <path id="Path_3524" data-name="Path 3524" d="M181.723,39.049c-.683-.292-1.283-.639-1.283-1.32a.991.991,0,0,1,.983-1.043c.738,0,1.27.612,1.557,1.5l.4-.084a10.249,10.249,0,0,0-.329-1.625,3.388,3.388,0,0,0-1.337-.264,2.087,2.087,0,0,0-2.295,1.96c0,1.168.984,1.655,1.885,2.086.75.347,1.187.707,1.187,1.376a1.063,1.063,0,0,1-1.078,1.056c-.9,0-1.584-.876-1.857-1.877l-.4.07a6.924,6.924,0,0,0,.246,1.793,3.073,3.073,0,0,0,1.734.514,2.263,2.263,0,0,0,2.485-2.085c0-1.042-.765-1.585-1.9-2.057" transform="translate(81.237 16.391)" fill="#878787"/>
    <path id="Path_3525" data-name="Path 3525" d="M200.583,37.465a1.474,1.474,0,0,0-.615.153l-1.228.529v-4.67a11.727,11.727,0,0,1-2.186.527v.349c.969.1,1,.18,1,1.126V43.9a5.318,5.318,0,0,0,2.227.542,3.763,3.763,0,0,0,3.795-3.807,3.091,3.091,0,0,0-2.99-3.17m-.41,6.407a1.39,1.39,0,0,1-1.339-.848,1.336,1.336,0,0,1-.094-.514v-3.9a2.48,2.48,0,0,1,1.174-.292,2.423,2.423,0,0,1,2.307,2.724c.015,1.752-.792,2.835-2.048,2.835" transform="translate(89.126 15.152)" fill="#878787"/>
    <path id="Path_3526" data-name="Path 3526" d="M265.272,36.222a3.447,3.447,0,0,0-3.3,3.642,3.279,3.279,0,0,0,3.3,3.35,3.373,3.373,0,0,0,3.277-3.614,3.284,3.284,0,0,0-3.277-3.377m.164,6.477h0c-1.243,0-2.076-1.418-2.076-3.335,0-1.71.82-2.655,1.747-2.655,1.311,0,2.022,1.445,2.022,3.21.013,2.086-.751,2.78-1.693,2.78" transform="translate(118.787 16.395)" fill="#878787"/>
    <path id="Path_3527" data-name="Path 3527" d="M192.943,37.96c1.08.139,1.2.32.917,1.014a10.88,10.88,0,0,1-.9,1.737c-.968-.986-2.035-1.917-2.539-2.349a15.205,15.205,0,0,0,1.23-.9,1.745,1.745,0,0,0,.628-1.333,2.134,2.134,0,0,0-2.24-2.085,2.439,2.439,0,0,0-2.472,2.39,2.887,2.887,0,0,0,1.093,2.114c-1.269.931-2.267,1.528-2.267,2.918a2.841,2.841,0,0,0,2.991,2.753c1.078,0,2.074-.542,3.154-2.016.493.529,1.132,1.238,1.31,1.474a3.89,3.89,0,0,0,1.846.625l.109-.153a17.79,17.79,0,0,0-2.459-3.045c.533-.806.887-1.418,1.312-2.015A1.892,1.892,0,0,1,196.4,37.96v-.431h-3.455Zm-4.3-1.89c0-.918.532-1.515,1.243-1.515a1.427,1.427,0,0,1,1.256,1.583,2.332,2.332,0,0,1-1.118,1.947c-.9-.694-1.381-1.223-1.381-2.015m1.108,7.1a2.052,2.052,0,0,1-2.089-2.141,2.663,2.663,0,0,1,1.378-2.167,29.187,29.187,0,0,1,3.139,2.918,3.15,3.15,0,0,1-2.429,1.39" transform="translate(84.517 15.407)" fill="#878787"/>
    <path id="Path_3528" data-name="Path 3528" d="M214.887,41.42V36.193a9.516,9.516,0,0,1-2.144.6v.36c.914.154.956.209.956,1.155v3.127c0,1.028-.1,1.111-1.052,1.209v.375h3.318v-.389c-.969-.083-1.078-.18-1.078-1.209" transform="translate(96.423 16.381)" fill="#878787"/>
    <path id="Path_3529" data-name="Path 3529" d="M211.034,39.049c-.683-.292-1.283-.639-1.283-1.32a.99.99,0,0,1,.982-1.043c.738,0,1.27.612,1.557,1.5l.4-.084a10.253,10.253,0,0,0-.328-1.625,3.388,3.388,0,0,0-1.337-.264,2.087,2.087,0,0,0-2.295,1.96c0,1.168.984,1.655,1.885,2.086.75.347,1.187.707,1.187,1.376a1.063,1.063,0,0,1-1.078,1.056c-.9,0-1.584-.876-1.857-1.877l-.4.07a6.924,6.924,0,0,0,.246,1.793,3.073,3.073,0,0,0,1.734.514,2.263,2.263,0,0,0,2.485-2.085c0-1.042-.765-1.585-1.9-2.057" transform="translate(94.528 16.391)" fill="#878787"/>
    <rect id="Rectangle_730" data-name="Rectangle 730" width="0.86" height="0.872" transform="translate(120.723 40.506)" fill="#878787"/>
    <rect id="Rectangle_731" data-name="Rectangle 731" width="1.714" height="0.872" transform="translate(376.866 40.506)" fill="#878787"/>
    <rect id="Rectangle_732" data-name="Rectangle 732" width="1.714" height="0.872" transform="translate(370.012 40.506)" fill="#878787"/>
    <rect id="Rectangle_733" data-name="Rectangle 733" width="1.714" height="0.872" transform="translate(160.983 40.506)" fill="#878787"/>
    <rect id="Rectangle_734" data-name="Rectangle 734" width="1.714" height="0.872" transform="translate(390.572 40.506)" fill="#878787"/>
    <rect id="Rectangle_735" data-name="Rectangle 735" width="1.714" height="0.872" transform="translate(393.999 40.506)" fill="#878787"/>
    <rect id="Rectangle_736" data-name="Rectangle 736" width="1.714" height="0.872" transform="translate(359.731 40.506)" fill="#878787"/>
    <rect id="Rectangle_737" data-name="Rectangle 737" width="1.714" height="0.872" transform="translate(352.878 40.506)" fill="#878787"/>
    <rect id="Rectangle_738" data-name="Rectangle 738" width="1.714" height="0.872" transform="translate(164.41 40.506)" fill="#878787"/>
    <rect id="Rectangle_739" data-name="Rectangle 739" width="1.712" height="0.872" transform="translate(157.556 40.506)" fill="#878787"/>
    <rect id="Rectangle_740" data-name="Rectangle 740" width="1.714" height="0.872" transform="translate(383.717 40.506)" fill="#878787"/>
    <rect id="Rectangle_741" data-name="Rectangle 741" width="1.714" height="0.872" transform="translate(154.13 40.506)" fill="#878787"/>
    <rect id="Rectangle_742" data-name="Rectangle 742" width="1.714" height="0.872" transform="translate(133.57 40.506)" fill="#878787"/>
    <rect id="Rectangle_743" data-name="Rectangle 743" width="1.714" height="0.872" transform="translate(373.439 40.506)" fill="#878787"/>
    <rect id="Rectangle_744" data-name="Rectangle 744" width="1.714" height="0.872" transform="translate(229.517 40.506)" fill="#878787"/>
    <rect id="Rectangle_745" data-name="Rectangle 745" width="1.714" height="0.872" transform="translate(226.09 40.506)" fill="#878787"/>
    <rect id="Rectangle_746" data-name="Rectangle 746" width="1.714" height="0.872" transform="translate(130.143 40.506)" fill="#878787"/>
    <rect id="Rectangle_747" data-name="Rectangle 747" width="1.712" height="0.872" transform="translate(136.997 40.506)" fill="#878787"/>
    <rect id="Rectangle_748" data-name="Rectangle 748" width="1.712" height="0.872" transform="translate(380.292 40.506)" fill="#878787"/>
    <rect id="Rectangle_749" data-name="Rectangle 749" width="1.712" height="0.872" transform="translate(178.118 40.506)" fill="#878787"/>
    <rect id="Rectangle_750" data-name="Rectangle 750" width="1.714" height="0.872" transform="translate(150.703 40.506)" fill="#878787"/>
    <rect id="Rectangle_751" data-name="Rectangle 751" width="1.714" height="0.872" transform="translate(143.85 40.506)" fill="#878787"/>
    <rect id="Rectangle_752" data-name="Rectangle 752" width="1.714" height="0.872" transform="translate(325.464 40.506)" fill="#878787"/>
    <rect id="Rectangle_753" data-name="Rectangle 753" width="1.714" height="0.872" transform="translate(363.157 40.506)" fill="#878787"/>
    <rect id="Rectangle_754" data-name="Rectangle 754" width="1.714" height="0.872" transform="translate(301.477 40.506)" fill="#878787"/>
    <rect id="Rectangle_755" data-name="Rectangle 755" width="1.714" height="0.872" transform="translate(366.584 40.506)" fill="#878787"/>
    <rect id="Rectangle_756" data-name="Rectangle 756" width="1.714" height="0.872" transform="translate(140.423 40.506)" fill="#878787"/>
    <rect id="Rectangle_757" data-name="Rectangle 757" width="1.714" height="0.872" transform="translate(356.306 40.506)" fill="#878787"/>
    <rect id="Rectangle_758" data-name="Rectangle 758" width="1.714" height="0.872" transform="translate(387.145 40.506)" fill="#878787"/>
    <rect id="Rectangle_759" data-name="Rectangle 759" width="1.712" height="0.872" transform="translate(126.717 40.506)" fill="#878787"/>
    <rect id="Rectangle_760" data-name="Rectangle 760" width="1.714" height="0.872" transform="translate(123.29 40.506)" fill="#878787"/>
    <rect id="Rectangle_761" data-name="Rectangle 761" width="1.714" height="0.872" transform="translate(304.905 40.506)" fill="#878787"/>
    <rect id="Rectangle_762" data-name="Rectangle 762" width="1.712" height="0.872" transform="translate(147.277 40.506)" fill="#878787"/>
    <rect id="Rectangle_763" data-name="Rectangle 763" width="1.714" height="0.872" transform="translate(328.891 40.506)" fill="#878787"/>
    <rect id="Rectangle_764" data-name="Rectangle 764" width="1.714" height="0.872" transform="translate(322.038 40.506)" fill="#878787"/>
    <rect id="Rectangle_765" data-name="Rectangle 765" width="1.714" height="0.872" transform="translate(260.357 40.506)" fill="#878787"/>
    <rect id="Rectangle_766" data-name="Rectangle 766" width="1.714" height="0.872" transform="translate(263.784 40.506)" fill="#878787"/>
    <rect id="Rectangle_767" data-name="Rectangle 767" width="1.714" height="0.872" transform="translate(277.49 40.506)" fill="#878787"/>
    <rect id="Rectangle_768" data-name="Rectangle 768" width="1.714" height="0.872" transform="translate(267.211 40.506)" fill="#878787"/>
    <rect id="Rectangle_769" data-name="Rectangle 769" width="1.714" height="0.872" transform="translate(274.063 40.506)" fill="#878787"/>
    <rect id="Rectangle_770" data-name="Rectangle 770" width="1.714" height="0.872" transform="translate(332.318 40.506)" fill="#878787"/>
    <rect id="Rectangle_771" data-name="Rectangle 771" width="1.712" height="0.872" transform="translate(253.504 40.506)" fill="#878787"/>
    <rect id="Rectangle_772" data-name="Rectangle 772" width="1.714" height="0.872" transform="translate(246.651 40.506)" fill="#878787"/>
    <rect id="Rectangle_773" data-name="Rectangle 773" width="1.714" height="0.872" transform="translate(256.929 40.506)" fill="#878787"/>
    <rect id="Rectangle_774" data-name="Rectangle 774" width="1.714" height="0.872" transform="translate(250.078 40.506)" fill="#878787"/>
    <rect id="Rectangle_775" data-name="Rectangle 775" width="1.714" height="0.872" transform="translate(284.344 40.506)" fill="#878787"/>
    <rect id="Rectangle_776" data-name="Rectangle 776" width="1.714" height="0.872" transform="translate(308.33 40.506)" fill="#878787"/>
    <rect id="Rectangle_777" data-name="Rectangle 777" width="1.714" height="0.872" transform="translate(315.183 40.506)" fill="#878787"/>
    <rect id="Rectangle_778" data-name="Rectangle 778" width="1.714" height="0.872" transform="translate(298.05 40.506)" fill="#878787"/>
    <rect id="Rectangle_779" data-name="Rectangle 779" width="1.714" height="0.872" transform="translate(294.623 40.506)" fill="#878787"/>
    <rect id="Rectangle_780" data-name="Rectangle 780" width="1.714" height="0.872" transform="translate(318.611 40.506)" fill="#878787"/>
    <rect id="Rectangle_781" data-name="Rectangle 781" width="1.714" height="0.872" transform="translate(287.77 40.506)" fill="#878787"/>
    <rect id="Rectangle_782" data-name="Rectangle 782" width="1.714" height="0.872" transform="translate(291.197 40.506)" fill="#878787"/>
    <rect id="Rectangle_783" data-name="Rectangle 783" width="1.714" height="0.872" transform="translate(280.917 40.506)" fill="#878787"/>
    <rect id="Rectangle_784" data-name="Rectangle 784" width="1.714" height="0.872" transform="translate(311.758 40.506)" fill="#878787"/>
    <rect id="Rectangle_785" data-name="Rectangle 785" width="1.712" height="0.872" transform="translate(167.838 40.506)" fill="#878787"/>
    <rect id="Rectangle_786" data-name="Rectangle 786" width="1.714" height="0.872" transform="translate(239.796 40.506)" fill="#878787"/>
    <rect id="Rectangle_787" data-name="Rectangle 787" width="1.714" height="0.872" transform="translate(270.637 40.506)" fill="#878787"/>
    <rect id="Rectangle_788" data-name="Rectangle 788" width="1.714" height="0.872" transform="translate(184.969 40.506)" fill="#878787"/>
    <rect id="Rectangle_789" data-name="Rectangle 789" width="1.712" height="0.872" transform="translate(188.398 40.506)" fill="#878787"/>
    <rect id="Rectangle_790" data-name="Rectangle 790" width="1.714" height="0.872" transform="translate(202.103 40.506)" fill="#878787"/>
    <rect id="Rectangle_791" data-name="Rectangle 791" width="1.714" height="0.872" transform="translate(195.25 40.506)" fill="#878787"/>
    <rect id="Rectangle_792" data-name="Rectangle 792" width="1.714" height="0.872" transform="translate(243.223 40.506)" fill="#878787"/>
    <rect id="Rectangle_793" data-name="Rectangle 793" width="1.714" height="0.872" transform="translate(191.822 40.506)" fill="#878787"/>
    <rect id="Rectangle_794" data-name="Rectangle 794" width="1.714" height="0.872" transform="translate(349.451 40.506)" fill="#878787"/>
    <rect id="Rectangle_795" data-name="Rectangle 795" width="1.714" height="0.872" transform="translate(171.263 40.506)" fill="#878787"/>
    <rect id="Rectangle_796" data-name="Rectangle 796" width="1.714" height="0.872" transform="translate(181.544 40.506)" fill="#878787"/>
    <rect id="Rectangle_797" data-name="Rectangle 797" width="1.714" height="0.872" transform="translate(174.689 40.506)" fill="#878787"/>
    <rect id="Rectangle_798" data-name="Rectangle 798" width="1.714" height="0.872" transform="translate(346.024 40.506)" fill="#878787"/>
    <rect id="Rectangle_799" data-name="Rectangle 799" width="1.712" height="0.872" transform="translate(198.677 40.506)" fill="#878787"/>
    <rect id="Rectangle_800" data-name="Rectangle 800" width="1.714" height="0.872" transform="translate(222.663 40.506)" fill="#878787"/>
    <rect id="Rectangle_801" data-name="Rectangle 801" width="1.714" height="0.872" transform="translate(219.236 40.506)" fill="#878787"/>
    <rect id="Rectangle_802" data-name="Rectangle 802" width="1.714" height="0.872" transform="translate(215.81 40.506)" fill="#878787"/>
    <rect id="Rectangle_803" data-name="Rectangle 803" width="1.714" height="0.872" transform="translate(236.37 40.506)" fill="#878787"/>
    <rect id="Rectangle_804" data-name="Rectangle 804" width="1.714" height="0.872" transform="translate(205.53 40.506)" fill="#878787"/>
    <rect id="Rectangle_805" data-name="Rectangle 805" width="1.712" height="0.872" transform="translate(232.945 40.506)" fill="#878787"/>
    <rect id="Rectangle_806" data-name="Rectangle 806" width="1.712" height="0.872" transform="translate(212.384 40.506)" fill="#878787"/>
    <rect id="Rectangle_807" data-name="Rectangle 807" width="1.714" height="0.872" transform="translate(342.598 40.506)" fill="#878787"/>
    <rect id="Rectangle_808" data-name="Rectangle 808" width="1.714" height="0.872" transform="translate(339.171 40.506)" fill="#878787"/>
    <rect id="Rectangle_809" data-name="Rectangle 809" width="1.714" height="0.872" transform="translate(208.957 40.506)" fill="#878787"/>
    <rect id="Rectangle_810" data-name="Rectangle 810" width="1.712" height="0.872" transform="translate(335.745 40.506)" fill="#878787"/>
    <rect id="Rectangle_811" data-name="Rectangle 811" width="0.862" height="0.872" transform="translate(397.426 40.506)" fill="#878787"/>
    <path id="Path_3530" data-name="Path 3530" d="M381.542,0H76.824L52.64,0a6.836,6.836,0,0,1,6.623,6.948L59.249,70H381.542a6.585,6.585,0,0,0,6.587-6.583V6.584A6.586,6.586,0,0,0,381.542,0m4.527,63.417a4.531,4.531,0,0,1-4.527,4.525H85.3L85.31,6.953a7.08,7.08,0,0,0-1.946-4.894H381.542a4.531,4.531,0,0,1,4.527,4.525Z" transform="translate(23.869 0)" fill="#878787"/>
    <path id="Path_3531" data-name="Path 3531" d="M67.79,30.055H56.539v19.94c0,6.306,2.558,7.472,4.506,7.472a11.077,11.077,0,0,0,4.812-1.329l.712,2.023-5.277,2.718a7.82,7.82,0,0,1-3.27,1.02c-4.9,0-7.617-3.117-7.617-9.26V30.055H37.873V52.668c0,5.953.509,6.188,6.324,6.839v2.008H26.84v-2.1c4.709-.488,5.218-.886,5.218-6.19V30.055H17.171V52.682c0,5.953.509,6.188,6.324,6.839V61.53H6.167v-2.1c4.709-.488,5.218-.886,5.218-6.19V30.055H4.961l1.015-1.272-.026-.071,1.282-1.5.651-.816h.045l.013-.015h3.445V24.6A24.246,24.246,0,0,1,12.2,18a19.624,19.624,0,0,1,5.654-9.409,14.461,14.461,0,0,1,8.083-4.342,7.613,7.613,0,0,1,5.8,2.732A2.79,2.79,0,0,1,32.1,9.805a4.518,4.518,0,0,1-1.4,1.935,1.245,1.245,0,0,1-1.991-.237c-1.468-1.447-3.533-2.969-5.961-2.969a4.213,4.213,0,0,0-3.9,2.408c-.959,1.521-1.759,5.391-1.686,12.23v3.219H28.6l.013-.015h3.445V24.6a24.251,24.251,0,0,1,.814-6.6,19.63,19.63,0,0,1,5.655-9.409,14.457,14.457,0,0,1,8.083-4.342,7.613,7.613,0,0,1,5.8,2.732,2.79,2.79,0,0,1,.363,2.821,4.438,4.438,0,0,1-1.381,1.92,1.245,1.245,0,0,1-1.991-.237c-1.469-1.447-3.533-2.969-5.961-2.969a4.21,4.21,0,0,0-3.9,2.408c-.959,1.521-1.759,5.391-1.686,12.23v3.219h8.679l.006.015H50.4V24.9H50.39v-.28L50.4,24.6V24.59l.017,0,5.026-5.062,1.076.163v3.666l.016,0v3.042H67.79Z" transform="translate(2.25 1.925)" fill="#fff"/>
  </g>
</svg>
