<?xml version="1.0" encoding="UTF-8"?>
<svg id="Layer_2" data-name="Layer 2" xmlns="http://www.w3.org/2000/svg" viewBox="0 0 88.04 88.15">
  <defs>
    <style>
      .cls-1 {
        fill: none;
        stroke: #00214d;
        stroke-linecap: round;
        stroke-miterlimit: 10;
        stroke-width: 3px;
      }

      .cls-2 {
        fill: #009985;
      }
    </style>
  </defs>
  <g id="Layer_1-2" data-name="Layer 1">
    <g>
      <path class="cls-2" d="m44.04,75.37c-17.3,0-31.32-14.02-31.32-31.32s14.02-31.32,31.32-31.32,31.32,14.02,31.32,31.32-14.02,31.32-31.32,31.32m0-73.08C20.98,2.3,2.28,20.99,2.28,44.06s18.7,41.76,41.76,41.76,41.76-18.7,41.76-41.76S67.1,2.3,44.04,2.3"/>
      <path class="cls-1" d="m34.93,54.68l18.21-21.25m-1.52,21.25h0c-2.52,0-4.55-2.04-4.55-4.55s2.04-4.55,4.55-4.55,4.55,2.04,4.55,4.55-2.04,4.55-4.55,4.55Zm-15.18-21.25c-2.51,0-4.55,2.04-4.55,4.55s2.04,4.55,4.55,4.55,4.55-2.04,4.55-4.55-2.04-4.55-4.55-4.55Zm31.91-13.7h12.16V7.58m2.26,19.24c7.13,15.63,4.09,34.61-8.77,47.47-16.55,16.55-43.55,16.46-60.11-.09l-5.48-5.47m-3.16-7.39C-1.86,45.71,1.17,26.73,14.03,13.87c16.55-16.55,43.55-16.46,60.1.09l5.48,5.48m-59.88,48.93H7.58v12.16m63.62-53.16c2.99,4.86,4.72,10.57,4.72,16.7,0,17.6-14.27,31.87-31.87,31.87-6.15,0-11.9-1.74-16.77-4.76m-10.01-9.83c-3.22-4.98-5.09-10.91-5.09-17.28,0-17.6,14.27-31.87,31.87-31.87,6.14,0,11.87,1.73,16.73,4.74"/>
    </g>
  </g>
</svg>