<?xml version="1.0" encoding="UTF-8"?>
<svg id="Layer_2" data-name="Layer 2" xmlns="http://www.w3.org/2000/svg" viewBox="0 0 88.35 90">
  <defs>
    <style>
      .cls-1 {
        fill: #fff;
      }

      .cls-2 {
        stroke-linecap: round;
      }

      .cls-2, .cls-3 {
        stroke-miterlimit: 10;
      }

      .cls-2, .cls-3, .cls-4 {
        fill: none;
        stroke: #00214d;
        stroke-width: 3px;
      }

      .cls-5 {
        fill: #009985;
      }

      .cls-4 {
        stroke-linejoin: round;
      }
    </style>
  </defs>
  <g id="Layer_1-2" data-name="Layer 1">
    <g>
      <path class="cls-1" d="m73.02,2.14H28.52c-1.82,0-3.3,1.48-3.3,3.3v79.12c0,1.82,1.48,3.3,3.3,3.3h54.39c1.82,0,3.3-1.48,3.3-3.3V15.33l-13.19-13.19Z"/>
      <polygon class="cls-5" points="73.02 2.14 71.37 2.14 71.37 16.98 86.21 16.98 86.21 15.33 73.02 2.14"/>
      <path class="cls-4" d="m81.8,16.56h-10.1V6.52m-47.13,15.06V4.85c0-1.85,1.51-3.35,3.37-3.35h45.44l13.46,13.39v70.27c0,1.85-1.51,3.35-3.37,3.35H27.94c-1.86,0-3.37-1.5-3.37-3.35v-5.02"/>
      <rect class="cls-1" x="2.14" y="26.87" width="39.56" height="49.45"/>
      <rect class="cls-5" x="2.14" y="26.87" width="39.56" height="14.84"/>
      <path class="cls-3" d="m15.12,76.96v-35.52m13.61,35.52v-35.52m13.62,23.68H15.12m27.23-11.84H1.5m40.85-11.84H1.5m0,35.52h40.85V26.23H1.5v50.74Z"/>
      <path class="cls-2" d="m52.74,67.07l24.08-27.66m-2.58,27.66h0c-3.33,0-6.02-2.71-6.02-6.05s2.7-6.05,6.02-6.05,6.02,2.71,6.02,6.05-2.7,6.05-6.02,6.05Zm-18.92-27.66c-3.32,0-6.02,2.71-6.02,6.05s2.7,6.05,6.02,6.05,6.02-2.71,6.02-6.05-2.7-6.05-6.02-6.05Z"/>
    </g>
  </g>
</svg>