<?xml version="1.0" encoding="UTF-8"?>
<svg id="Layer_2" data-name="Layer 2" xmlns="http://www.w3.org/2000/svg" viewBox="0 0 99.19 90">
  <defs>
    <style>
      .cls-1 {
        fill: #fff;
      }

      .cls-2 {
        stroke-linecap: round;
        stroke-miterlimit: 10;
      }

      .cls-2, .cls-3 {
        fill: none;
        stroke: #00214d;
        stroke-width: 3px;
      }

      .cls-4 {
        fill: #009985;
      }

      .cls-3 {
        stroke-linejoin: round;
      }
    </style>
  </defs>
  <g id="Layer_1-2" data-name="Layer 1">
    <g>
      <path class="cls-1" d="m94.88,15.15H23.54l10.82,38.73h48.42c1.82,0,3.43-1.19,3.96-2.93l10.12-33.13c.41-1.33-.59-2.67-1.98-2.67"/>
      <path class="cls-2" d="m81.8,69.13h-39.33c-2.18,0-4.25-1.01-5.22-3.58L20.41,4.88c-.53-1.79-2.31-3.38-4.16-3.38H1.5m27.86,13.2h66.23c1.41,0,2.42,1.37,2.01,2.73l-10.28,33.87c-.54,1.78-2.17,2.99-4.02,2.99h-49.17"/>
      <path class="cls-4" d="m48.16,81.31c0,3.97-3.22,7.19-7.19,7.19s-7.19-3.22-7.19-7.19,3.22-7.19,7.19-7.19,7.19,3.22,7.19,7.19"/>
      <circle class="cls-3" cx="40.97" cy="81.31" r="7.19" transform="translate(-1.92 1) rotate(-1.36)"/>
      <path class="cls-4" d="m82.05,81.31c0,3.97-3.22,7.19-7.19,7.19s-7.19-3.22-7.19-7.19,3.22-7.19,7.19-7.19,7.19,3.22,7.19,7.19"/>
      <circle class="cls-3" cx="74.85" cy="81.31" r="7.19" transform="translate(-1.91 1.8) rotate(-1.36)"/>
      <path class="cls-2" d="m50.1,46.54l20.47-24.06m-1.71,24.06h0c-2.83,0-5.12-2.31-5.12-5.16s2.29-5.16,5.12-5.16,5.12,2.31,5.12,5.16-2.29,5.16-5.12,5.16Zm-17.06-24.06c-2.83,0-5.12,2.31-5.12,5.16s2.29,5.16,5.12,5.16,5.12-2.31,5.12-5.16-2.29-5.16-5.12-5.16Z"/>
    </g>
  </g>
</svg>