<?xml version="1.0" encoding="UTF-8"?>
<svg id="Layer_2" data-name="Layer 2" xmlns="http://www.w3.org/2000/svg" viewBox="0 0 94.27 96">
  <defs>
    <style>
      .cls-1 {
        fill: #fff;
      }

      .cls-2 {
        stroke-linecap: round;
      }

      .cls-2, .cls-3 {
        stroke-miterlimit: 10;
      }

      .cls-2, .cls-3, .cls-4 {
        fill: none;
        stroke: #00214d;
        stroke-width: 3px;
      }

      .cls-5 {
        fill: #009985;
      }

      .cls-4 {
        stroke-linejoin: round;
      }
    </style>
  </defs>
  <g id="Layer_1-2" data-name="Layer 1">
    <g>
      <polygon class="cls-1" points="78.21 81.66 78.21 50.59 47.14 19.52 16.07 50.59 16.07 81.66 78.21 81.66"/>
      <polygon class="cls-1" points="20.49 6.68 20.49 30.02 32.36 18.35 32.36 6.68 20.49 6.68"/>
      <polygon class="cls-3" points="20.49 6.68 20.49 30.02 32.36 18.35 32.36 6.68 20.49 6.68"/>
      <line class="cls-3" x1="15.54" y1="81.66" x2="15.54" y2="50.59"/>
      <polygon class="cls-5" points="47.14 1.5 1.5 47.65 10.28 56.53 47.14 19.25 84 56.53 92.77 47.65 47.14 1.5"/>
      <polygon class="cls-4" points="47.14 1.5 1.5 47.65 10.28 56.53 47.14 19.25 84 56.53 92.77 47.65 47.14 1.5"/>
      <rect class="cls-3" x="27.39" y="56.73" width="15.33" height="25.69"/>
      <path class="cls-2" d="m52.45,36.15c0,2.93-2.36,5.3-5.28,5.3s-5.28-2.38-5.28-5.3,2.36-5.31,5.28-5.31,5.28,2.38,5.28,5.31Zm1.76,58.35l28.15-31.83m-3.52,31.83h0c-3.89,0-7.04-3.17-7.04-7.07s3.15-7.07,7.04-7.07,7.04,3.17,7.04,7.07-3.15,7.07-7.04,7.07Zm-21.11-31.83c-3.89,0-7.04,3.17-7.04,7.07s3.15,7.07,7.04,7.07,7.04-3.17,7.04-7.07-3.15-7.07-7.04-7.07ZM4.95,82.12h42.22"/>
    </g>
  </g>
</svg>