<?xml version="1.0" encoding="UTF-8"?>
<svg id="Layer_2" data-name="Layer 2" xmlns="http://www.w3.org/2000/svg" viewBox="0 0 92.87 86">
  <defs>
    <style>
      .cls-1 {
        fill: #fff;
      }

      .cls-2 {
        stroke-linecap: round;
      }

      .cls-2, .cls-3, .cls-4 {
        fill: none;
        stroke: #00214d;
      }

      .cls-2, .cls-4 {
        stroke-miterlimit: 10;
        stroke-width: 3px;
      }

      .cls-3 {
        stroke-linejoin: round;
        stroke-width: 2px;
      }

      .cls-5 {
        fill: #009985;
      }
    </style>
  </defs>
  <g id="Layer_1-2" data-name="Layer 1">
    <g>
      <g>
        <path class="cls-1" d="m14.33,1.59h43c1.76,0,3.18,1.43,3.18,3.19v76.44c0,1.76-1.43,3.19-3.18,3.19H4.78c-1.76,0-3.19-1.43-3.19-3.19V14.33L14.33,1.59Z"/>
        <path class="cls-4" d="m14.33,1.59h43c1.76,0,3.18,1.43,3.18,3.19v76.44c0,1.76-1.43,3.19-3.18,3.19H4.78c-1.76,0-3.19-1.43-3.19-3.19V14.33L14.33,1.59Z"/>
      </g>
      <polygon class="cls-5" points="14.33 1.59 15.93 1.59 15.93 15.93 1.59 15.93 1.59 14.33 14.33 1.59"/>
      <polygon class="cls-4" points="14.33 1.59 15.93 1.59 15.93 15.93 1.59 15.93 1.59 14.33 14.33 1.59"/>
      <g>
        <path class="cls-3" d="m5.87,15.54h9.75V5.85m45.49,29.08V4.23c0-1.79-1.46-3.23-3.25-3.23H14L1,13.92v67.85c0,1.79,1.46,3.23,3.25,3.23h53.61c1.79,0,3.25-1.45,3.25-3.23v-4.85"/>
        <path class="cls-2" d="m12.3,51.55l20-23.48m-1.67,23.48h0c-2.76,0-5-2.25-5-5.03s2.24-5.03,5-5.03,5,2.25,5,5.03-2.24,5.03-5,5.03ZM13.96,28.07c-2.76,0-5,2.25-5,5.03s2.24,5.03,5,5.03,5-2.25,5-5.03-2.24-5.03-5-5.03Z"/>
        <path class="cls-5" d="m88.11,72.26h-42.44c-1.8,0-3.26-1.48-3.26-3.3v-26.43c0-1.83,1.46-3.3,3.26-3.3h42.44c1.8,0,3.26,1.48,3.26,3.3v26.43c0,1.82-1.46,3.3-3.26,3.3"/>
        <path class="cls-2" d="m88.11,72.26h-42.44c-1.8,0-3.26-1.48-3.26-3.3v-26.43c0-1.83,1.46-3.3,3.26-3.3h42.44c1.8,0,3.26,1.48,3.26,3.3v26.43c0,1.82-1.46,3.3-3.26,3.3Z"/>
      </g>
      <line class="cls-2" x1="42.41" y1="62.38" x2="91.37" y2="62.38"/>
    </g>
  </g>
</svg>