<?xml version="1.0" encoding="UTF-8"?>
<svg id="Layer_2" data-name="Layer 2" xmlns="http://www.w3.org/2000/svg" viewBox="0 0 100 92.5">
  <defs>
    <style>
      .cls-1 {
        fill: #fff;
      }

      .cls-2 {
        stroke-linecap: round;
      }

      .cls-2, .cls-3 {
        fill: none;
        stroke: #00214d;
        stroke-miterlimit: 10;
        stroke-width: 3px;
      }

      .cls-4 {
        fill: #009985;
      }
    </style>
  </defs>
  <g id="Layer_1-2" data-name="Layer 1">
    <g>
      <g>
        <path class="cls-1" d="m84.18,43.59l-10.87,5.15-.6.23c-.77-1.37-2.08-2.28-3.91-2.28h-11.08c-2.54,0-6.4-3.69-9.46-3.69h-10.86c-4.46,0-8.45,3.65-10.7,5.75-3.47,3.47-10.45,10.48-10.45,10.48l16.98,17c2.78-2.78,6.04-5.52,8.88-5.52h22.17c3.46,0,6.9-1.06,9.35-3.51l18.38-18.38,5.22-13.06c-3.18-3.18-10.45.22-13.06,7.84"/>
        <path class="cls-2" d="m49.2,58.06h19.83c3.14,0,4.84-2.53,4.84-5.74v-.04c0-3.21-1.7-5.85-4.84-5.85h-11.39c-2.61,0-6.58-3.88-9.72-3.88h-11.16c-4.59,0-8.69,3.84-11,6.03-3.57,3.64-10.74,11-10.74,11l17.45,17.83c2.85-2.91,6.21-5.8,9.12-5.8h22.78c3.55,0,7.09-1.11,9.61-3.68l18.89-19.29,5.37-13.7c-3.27-3.34-10.74.23-13.42,8.22l-11.16,5.41"/>
      </g>
      <rect class="cls-4" x="12.5" y="53.47" width="16.75" height="36.3" transform="translate(-44.53 35.74) rotate(-45)"/>
      <rect class="cls-3" x="12.5" y="53.47" width="16.75" height="36.3" transform="translate(-44.53 35.74) rotate(-45)"/>
      <line class="cls-3" x1="17.98" y1="68.34" x2="13.08" y2="63.44"/>
      <path class="cls-2" d="m45.13,36.46L76.05,1.5m-3.87,34.96h0c-4.27,0-7.73-3.48-7.73-7.77s3.46-7.77,7.73-7.77,7.73,3.48,7.73,7.77-3.46,7.77-7.73,7.77ZM49,1.5c-4.27,0-7.73,3.48-7.73,7.77s3.46,7.77,7.73,7.77,7.73-3.48,7.73-7.77-3.46-7.77-7.73-7.77Z"/>
    </g>
  </g>
</svg>