<?xml version="1.0" encoding="UTF-8"?>
<svg id="Layer_2" data-name="Layer 2" xmlns="http://www.w3.org/2000/svg" viewBox="0 0 64.9 91.97">
  <defs>
    <style>
      .cls-1 {
        stroke: #009985;
        stroke-width: 2px;
      }

      .cls-1, .cls-2 {
        stroke-miterlimit: 10;
      }

      .cls-1, .cls-2, .cls-3 {
        fill: none;
      }

      .cls-2 {
        stroke-linecap: round;
      }

      .cls-2, .cls-3 {
        stroke: #00214d;
        stroke-width: 3px;
      }

      .cls-4 {
        fill: #009985;
      }

      .cls-3 {
        stroke-linejoin: round;
      }
    </style>
  </defs>
  <g id="Layer_1-2" data-name="Layer 1">
    <g>
      <polygon class="cls-4" points="25.31 31.44 18.16 24.3 18.16 48.59 25.31 48.59 25.31 31.44"/>
      <polygon class="cls-4" points="31.03 90.04 9.59 60.02 18.16 60.02 18.16 32.87 42.46 58.6 42.46 60.02 52.46 60.02 31.03 90.04"/>
      <path class="cls-3" d="m42.69,15.8V0M10.62,33.03V15.8m7.29-4.31v-2.87m0,8.62v-2.87m24.78,31.59v14.36h10.2s-21.87,30.15-21.87,30.15l-21.87-30.16h8.75s0-40.21,0-40.21"/>
      <path class="cls-2" d="m54.23,18.15l-20.67,23.72m2.21-23.72h0c2.86,0,5.17,2.32,5.17,5.19s-2.31,5.19-5.17,5.19-5.17-2.32-5.17-5.19,2.31-5.19,5.17-5.19Zm16.25,23.72c2.85,0,5.17-2.32,5.17-5.19s-2.31-5.19-5.17-5.19-5.17,2.32-5.17,5.19,2.31,5.19,5.17,5.19Z"/>
      <path class="cls-1" d="m7.92,8.67V0M3.59,4.34l4.33,4.34,4.33-4.34m-7.21,46.24v-8.67m-4.33,4.34l4.33,4.33,4.33-4.33m50.5,8.67v-8.67m-4.33,4.33l4.33,4.34,4.33-4.34"/>
    </g>
  </g>
</svg>